<svg width="48" height="48" viewBox="0 0 48 48" fill="none" xmlns="http://www.w3.org/2000/svg">
<path d="M26 14.9997L20 20.9997L28 24.9997L22 30.9997M40 23.9997C40 33.8166 29.2921 40.9565 25.396 43.2295C24.9532 43.4878 24.7318 43.617 24.4194 43.684C24.1769 43.736 23.8231 43.736 23.5806 43.684C23.2682 43.617 23.0468 43.4878 22.604 43.2295C18.7079 40.9565 8 33.8166 8 23.9997V14.4349C8 12.8359 8 12.0364 8.26152 11.3491C8.49255 10.742 8.86797 10.2003 9.35532 9.7708C9.90699 9.28462 10.6556 9.00389 12.1528 8.44244L22.8764 4.42109C23.2922 4.26517 23.5001 4.18721 23.714 4.1563C23.9037 4.12889 24.0963 4.12889 24.286 4.1563C24.4999 4.18721 24.7078 4.26517 25.1236 4.42109L35.8472 8.44244C37.3444 9.00389 38.093 9.28462 38.6447 9.7708C39.132 10.2003 39.5075 10.742 39.7385 11.3491C40 12.0364 40 12.8359 40 14.4349V23.9997Z" stroke="#EF4136" stroke-width="4" stroke-linecap="round" stroke-linejoin="round"/>
</svg>
