<svg width="48" height="48" viewBox="0 0 48 48" fill="none" xmlns="http://www.w3.org/2000/svg">
<path d="M24 32V42M24 32L36 42M24 32L12 42M42 6V22.4C42 25.7603 42 27.4405 41.346 28.7239C40.7708 29.8529 39.8529 30.7708 38.7239 31.346C37.4405 32 35.7603 32 32.4 32H15.6C12.2397 32 10.5595 32 9.27606 31.346C8.14708 30.7708 7.2292 29.8529 6.65396 28.7239C6 27.4405 6 25.7603 6 22.4V6M16 18V24M24 14V24M32 22V24M44 6H4" stroke="#EF4136" stroke-width="4" stroke-linecap="round" stroke-linejoin="round"/>
</svg>
