<svg width="48" height="48" viewBox="0 0 48 48" fill="none" xmlns="http://www.w3.org/2000/svg">
<path d="M24 30C17.3726 30 12 24.6274 12 18V6.88889C12 6.06119 12 5.64735 12.1206 5.31596C12.3228 4.76043 12.7604 4.32281 13.316 4.12061C13.6473 4 14.0612 4 14.8889 4H33.1111C33.9388 4 34.3527 4 34.684 4.12061C35.2396 4.32281 35.6772 4.76043 35.8794 5.31596C36 5.64735 36 6.06119 36 6.88889V18C36 24.6274 30.6274 30 24 30ZM24 30V36M36 8H41C41.9319 8 42.3978 8 42.7654 8.15224C43.2554 8.35523 43.6448 8.74458 43.8478 9.23463C44 9.60218 44 10.0681 44 11V12C44 13.8599 44 14.7899 43.7956 15.5529C43.2408 17.6235 41.6235 19.2408 39.5529 19.7956C38.7899 20 37.8599 20 36 20M12 8H7C6.06812 8 5.60218 8 5.23463 8.15224C4.74458 8.35523 4.35523 8.74458 4.15224 9.23463C4 9.60218 4 10.0681 4 11V12C4 13.8599 4 14.7899 4.20445 15.5529C4.75925 17.6235 6.37653 19.2408 8.44709 19.7956C9.21008 20 10.1401 20 12 20M14.8889 44H33.1111C33.602 44 34 43.602 34 43.1111C34 39.1838 30.8162 36 26.8889 36H21.1111C17.1838 36 14 39.1838 14 43.1111C14 43.602 14.398 44 14.8889 44Z" stroke="#EF4136" stroke-width="4" stroke-linecap="round" stroke-linejoin="round"/>
</svg>
