<svg width="1892" height="1080" viewBox="0 0 1892 1080" fill="none" xmlns="http://www.w3.org/2000/svg">
<g clip-path="url(#clip0_4674_6142)">
<mask id="mask0_4674_6142" style="mask-type:alpha" maskUnits="userSpaceOnUse" x="0" y="0" width="1892" height="1080">
<rect width="1892" height="1080" fill="url(#paint0_linear_4674_6142)"/>
</mask>
<g mask="url(#mask0_4674_6142)">
<g clip-path="url(#clip1_4674_6142)">
<g opacity="0.5" clip-path="url(#clip2_4674_6142)">
<path d="M-15.1795 249.286V231.958H-2.11933L69.9994 306.127V331.09L-2.11932 405.259H-15.1795V387.943L51.2159 319.66L52.2327 318.614L51.2159 317.569L-15.1795 249.286Z" stroke="#DBD9FF" stroke-width="3"/>
<path d="M356.044 231.958L350.019 251.334H320.802L326.827 231.958H356.044ZM344.142 270.172L301.165 405.259H271.954L314.931 270.172H344.142Z" stroke="#DBD9FF" stroke-width="3"/>
<path d="M233.296 231.958H246.357V249.286L179.961 317.569L178.944 318.614L179.961 319.66L246.357 387.943V405.259H233.296L161.178 331.09V306.127L233.296 231.958Z" stroke="#DBD9FF" stroke-width="3"/>
<path d="M381.625 249.286V231.958H394.685L466.804 306.127V331.09L394.685 405.259H381.625V387.943L448.021 319.66L449.037 318.614L448.021 317.569L381.625 249.286Z" stroke="#DBD9FF" stroke-width="3"/>
<path d="M752.849 231.958L746.824 251.334H717.606L723.631 231.958H752.849ZM740.946 270.172L697.969 405.259H668.758L711.735 270.172H740.946Z" stroke="#DBD9FF" stroke-width="3"/>
<path d="M630.102 231.958H643.162V249.286L576.767 317.569L575.75 318.614L576.767 319.66L643.162 387.943V405.259H630.102L557.983 331.09V306.127L630.102 231.958Z" stroke="#DBD9FF" stroke-width="3"/>
<path d="M778.431 249.286V231.958H791.491L863.61 306.127V331.09L791.491 405.259H778.431V387.943L844.826 319.66L845.843 318.614L844.826 317.569L778.431 249.286Z" stroke="#DBD9FF" stroke-width="3"/>
<path d="M1149.27 231.958L1143.25 251.334H1114.03L1120.06 231.958H1149.27ZM1137.37 270.172L1094.39 405.259H1065.18L1108.16 270.172H1137.37Z" stroke="#DBD9FF" stroke-width="3"/>
<path d="M1026.53 231.958H1039.59V249.286L973.191 317.569L972.174 318.614L973.191 319.66L1039.59 387.943V405.259H1026.53L954.407 331.09V306.127L1026.53 231.958Z" stroke="#DBD9FF" stroke-width="3"/>
<path d="M1174.85 249.286V231.958H1187.91L1260.03 306.127V331.09L1187.91 405.259H1174.85V387.943L1241.25 319.66L1242.27 318.614L1241.25 317.569L1174.85 249.286Z" stroke="#DBD9FF" stroke-width="3"/>
<path d="M1546.08 231.958L1540.05 251.334H1510.83L1516.86 231.958H1546.08ZM1534.17 270.172L1491.2 405.259H1461.99L1504.96 270.172H1534.17Z" stroke="#DBD9FF" stroke-width="3"/>
<path d="M1423.33 231.958H1436.39V249.286L1370 317.569L1368.98 318.614L1370 319.66L1436.39 387.943V405.259H1423.33L1351.21 331.09V306.127L1423.33 231.958Z" stroke="#DBD9FF" stroke-width="3"/>
<path d="M1571.66 249.286V231.958H1584.72L1656.84 306.127V331.09L1584.72 405.259H1571.66V387.943L1638.05 319.66L1639.07 318.614L1638.05 317.569L1571.66 249.286Z" stroke="#DBD9FF" stroke-width="3"/>
<path d="M1942.88 231.958L1936.86 251.334H1907.64L1913.67 231.958H1942.88ZM1930.98 270.172L1888 405.259H1858.79L1901.77 270.172H1930.98Z" stroke="#DBD9FF" stroke-width="3"/>
<path d="M1820.14 231.958H1833.2V249.286L1766.8 317.569L1765.78 318.614L1766.8 319.66L1833.2 387.943V405.259H1820.14L1748.02 331.09V306.127L1820.14 231.958Z" stroke="#DBD9FF" stroke-width="3"/>
<path d="M157.641 -0.714111L151.616 18.662H122.399L128.424 -0.714111H157.641ZM145.739 37.5L102.762 172.587H73.5509L116.528 37.5H145.739Z" stroke="#DBD9FF" stroke-width="3"/>
<path d="M34.8946 -0.714111H47.9548V16.6135L-18.4407 84.8963L-19.4575 85.942L-18.4407 86.9877L47.9548 155.271V172.587H34.8946L-37.2241 98.4181V73.4547L34.8946 -0.714111Z" stroke="#DBD9FF" stroke-width="3"/>
<path d="M183.223 16.6135V-0.714111H196.283L268.402 73.4547V98.4181L196.283 172.587H183.223V155.271L249.619 86.9877L250.635 85.942L249.619 84.8963L183.223 16.6135Z" stroke="#DBD9FF" stroke-width="3"/>
<path d="M554.446 -0.714111L548.421 18.662H519.204L525.228 -0.714111H554.446ZM542.543 37.5L499.566 172.587H470.356L513.332 37.5H542.543Z" stroke="#DBD9FF" stroke-width="3"/>
<path d="M431.699 -0.714111H444.759V16.6135L378.364 84.8963L377.347 85.942L378.364 86.9877L444.759 155.271V172.587H431.699L359.581 98.4181V73.4547L431.699 -0.714111Z" stroke="#DBD9FF" stroke-width="3"/>
<path d="M580.028 16.6135V-0.714111H593.088L665.207 73.4547V98.4181L593.088 172.587H580.028V155.271L646.423 86.9877L647.44 85.942L646.423 84.8963L580.028 16.6135Z" stroke="#DBD9FF" stroke-width="3"/>
<path d="M951.25 -0.714111L945.226 18.662H916.008L922.033 -0.714111H951.25ZM939.348 37.5L896.371 172.587H867.16L910.137 37.5H939.348Z" stroke="#DBD9FF" stroke-width="3"/>
<path d="M828.505 -0.714111H841.565V16.6135L775.17 84.8963L774.153 85.942L775.17 86.9877L841.565 155.271V172.587H828.505L756.386 98.4181V73.4547L828.505 -0.714111Z" stroke="#DBD9FF" stroke-width="3"/>
<path d="M976.834 16.6135V-0.714111H989.894L1062.01 73.4547V98.4181L989.894 172.587H976.834V155.271L1043.23 86.9877L1044.25 85.942L1043.23 84.8963L976.834 16.6135Z" stroke="#DBD9FF" stroke-width="3"/>
<path d="M1347.67 -0.714111L1341.65 18.662H1312.43L1318.46 -0.714111H1347.67ZM1335.77 37.5L1292.8 172.587H1263.58L1306.56 37.5H1335.77Z" stroke="#DBD9FF" stroke-width="3"/>
<path d="M1224.93 -0.714111H1237.99V16.6135L1171.59 84.8963L1170.58 85.942L1171.59 86.9877L1237.99 155.271V172.587H1224.93L1152.81 98.4181V73.4547L1224.93 -0.714111Z" stroke="#DBD9FF" stroke-width="3"/>
<path d="M1373.26 16.6135V-0.714111H1386.32L1458.44 73.4547V98.4181L1386.32 172.587H1373.26V155.271L1439.65 86.9877L1440.67 85.942L1439.65 84.8963L1373.26 16.6135Z" stroke="#DBD9FF" stroke-width="3"/>
<path d="M1744.48 -0.714111L1738.46 18.662H1709.24L1715.26 -0.714111H1744.48ZM1732.58 37.5L1689.6 172.587H1660.39L1703.37 37.5H1732.58Z" stroke="#DBD9FF" stroke-width="3"/>
<path d="M1621.73 -0.714111H1634.79V16.6135L1568.4 84.8963L1567.38 85.942L1568.4 86.9877L1634.79 155.271V172.587H1621.73L1549.61 98.4181V73.4547L1621.73 -0.714111Z" stroke="#DBD9FF" stroke-width="3"/>
<path d="M1770.06 16.6135V-0.714111H1783.12L1855.24 73.4547V98.4181L1783.12 172.587H1770.06V155.271L1836.46 86.9877L1837.47 85.942L1836.46 84.8963L1770.06 16.6135Z" stroke="#DBD9FF" stroke-width="3"/>
<path d="M157.641 464.628L151.616 484.004H122.399L128.424 464.628H157.641ZM145.739 502.842L102.762 637.929H73.5509L116.528 502.842H145.739Z" stroke="#DBD9FF" stroke-width="3"/>
<path d="M34.8946 464.628H47.9548V481.955L-18.4407 550.238L-19.4575 551.284L-18.4407 552.33L47.9548 620.613V637.929H34.8946L-37.2241 563.76V538.797L34.8946 464.628Z" stroke="#DBD9FF" stroke-width="3"/>
<path d="M183.223 481.956V464.628H196.283L268.402 538.797V563.76L196.283 637.929H183.223V620.613L249.619 552.33L250.635 551.284L249.619 550.238L183.223 481.956Z" stroke="#DBD9FF" stroke-width="3"/>
<path d="M554.446 464.628L548.421 484.004H519.204L525.228 464.628H554.446ZM542.543 502.842L499.566 637.929H470.356L513.332 502.842H542.543Z" stroke="#DBD9FF" stroke-width="3"/>
<path d="M431.699 464.628H444.759V481.955L378.364 550.238L377.347 551.284L378.364 552.33L444.759 620.613V637.929H431.699L359.581 563.76V538.797L431.699 464.628Z" stroke="#DBD9FF" stroke-width="3"/>
<path d="M580.028 481.956V464.628H593.088L665.207 538.797V563.76L593.088 637.929H580.028V620.613L646.423 552.33L647.44 551.284L646.423 550.238L580.028 481.956Z" stroke="#DBD9FF" stroke-width="3"/>
<path d="M951.25 464.628L945.226 484.004H916.008L922.033 464.628H951.25ZM939.348 502.842L896.371 637.929H867.16L910.137 502.842H939.348Z" stroke="#DBD9FF" stroke-width="3"/>
<path d="M828.505 464.628H841.565V481.955L775.17 550.238L774.153 551.284L775.17 552.33L841.565 620.613V637.929H828.505L756.386 563.76V538.797L828.505 464.628Z" stroke="#DBD9FF" stroke-width="3"/>
<path d="M976.834 481.956V464.628H989.894L1062.01 538.797V563.76L989.894 637.929H976.834V620.613L1043.23 552.33L1044.25 551.284L1043.23 550.238L976.834 481.956Z" stroke="#DBD9FF" stroke-width="3"/>
<path d="M157.641 697.5L151.616 716.876H122.399L128.424 697.5H157.641ZM145.739 735.714L102.762 870.801H73.5509L116.528 735.714H145.739Z" stroke="#DBD9FF" stroke-width="3"/>
<path d="M34.8946 697.5H47.9548V714.828L-18.4407 783.11L-19.4575 784.156L-18.4407 785.202L47.9548 853.485V870.801H34.8946L-37.2241 796.632V771.669L34.8946 697.5Z" stroke="#DBD9FF" stroke-width="3"/>
<path d="M183.223 714.828V697.5H196.283L268.402 771.669V796.632L196.283 870.801H183.223V853.485L249.619 785.202L250.635 784.156L249.619 783.11L183.223 714.828Z" stroke="#DBD9FF" stroke-width="3"/>
<path d="M554.446 697.5L548.421 716.876H519.204L525.228 697.5H554.446ZM542.543 735.714L499.566 870.801H470.356L513.332 735.714H542.543Z" stroke="#DBD9FF" stroke-width="3"/>
<path d="M431.699 697.5H444.759V714.828L378.364 783.11L377.347 784.156L378.364 785.202L444.759 853.485V870.801H431.699L359.581 796.632V771.669L431.699 697.5Z" stroke="#DBD9FF" stroke-width="3"/>
<path d="M580.028 714.828V697.5H593.088L665.207 771.669V796.632L593.088 870.801H580.028V853.485L646.423 785.202L647.44 784.156L646.423 783.11L580.028 714.828Z" stroke="#DBD9FF" stroke-width="3"/>
<path d="M951.25 697.5L945.226 716.876H916.008L922.033 697.5H951.25ZM939.348 735.714L896.371 870.801H867.16L910.137 735.714H939.348Z" stroke="#DBD9FF" stroke-width="3"/>
<path d="M828.505 697.5H841.565V714.828L775.17 783.11L774.153 784.156L775.17 785.202L841.565 853.485V870.801H828.505L756.386 796.632V771.669L828.505 697.5Z" stroke="#DBD9FF" stroke-width="3"/>
<path d="M976.834 714.828V697.5H989.894L1062.01 771.669V796.632L989.894 870.801H976.834V853.485L1043.23 785.202L1044.25 784.156L1043.23 783.11L976.834 714.828Z" stroke="#DBD9FF" stroke-width="3"/>
<path d="M157.641 930.5L151.616 949.876H122.399L128.424 930.5H157.641ZM145.739 968.714L102.762 1103.8H73.5509L116.528 968.714H145.739Z" stroke="#DBD9FF" stroke-width="3"/>
<path d="M34.8946 930.5H47.9548V947.828L-18.4407 1016.11L-19.4575 1017.16L-18.4407 1018.2L47.9548 1086.48V1103.8H34.8946L-37.2241 1029.63V1004.67L34.8946 930.5Z" stroke="#DBD9FF" stroke-width="3"/>
<path d="M183.223 947.828V930.5H196.283L268.402 1004.67V1029.63L196.283 1103.8H183.223V1086.48L249.619 1018.2L250.635 1017.16L249.619 1016.11L183.223 947.828Z" stroke="#DBD9FF" stroke-width="3"/>
<path d="M554.446 930.5L548.421 949.876H519.204L525.228 930.5H554.446ZM542.543 968.714L499.566 1103.8H470.356L513.332 968.714H542.543Z" stroke="#DBD9FF" stroke-width="3"/>
<path d="M431.699 930.5H444.759V947.828L378.364 1016.11L377.347 1017.16L378.364 1018.2L444.759 1086.48V1103.8H431.699L359.581 1029.63V1004.67L431.699 930.5Z" stroke="#DBD9FF" stroke-width="3"/>
<path d="M580.028 947.828V930.5H593.088L665.207 1004.67V1029.63L593.088 1103.8H580.028V1086.48L646.423 1018.2L647.44 1017.16L646.423 1016.11L580.028 947.828Z" stroke="#DBD9FF" stroke-width="3"/>
<path d="M951.25 930.5L945.226 949.876H916.008L922.033 930.5H951.25ZM939.348 968.714L896.371 1103.8H867.16L910.137 968.714H939.348Z" stroke="#DBD9FF" stroke-width="3"/>
<path d="M828.505 930.5H841.565V947.828L775.17 1016.11L774.153 1017.16L775.17 1018.2L841.565 1086.48V1103.8H828.505L756.386 1029.63V1004.67L828.505 930.5Z" stroke="#DBD9FF" stroke-width="3"/>
<path d="M976.834 947.828V930.5H989.894L1062.01 1004.67V1029.63L989.894 1103.8H976.834V1086.48L1043.23 1018.2L1044.25 1017.16L1043.23 1016.11L976.834 947.828Z" stroke="#DBD9FF" stroke-width="3"/>
<path d="M1347.67 464.628L1341.65 484.004H1312.43L1318.46 464.628H1347.67ZM1335.77 502.842L1292.8 637.929H1263.58L1306.56 502.842H1335.77Z" stroke="#DBD9FF" stroke-width="3"/>
<path d="M1224.93 464.628H1237.99V481.955L1171.59 550.238L1170.58 551.284L1171.59 552.33L1237.99 620.613V637.929H1224.93L1152.81 563.76V538.797L1224.93 464.628Z" stroke="#DBD9FF" stroke-width="3"/>
<path d="M1373.26 481.956V464.628H1386.32L1458.44 538.797V563.76L1386.32 637.929H1373.26V620.613L1439.65 552.33L1440.67 551.284L1439.65 550.238L1373.26 481.956Z" stroke="#DBD9FF" stroke-width="3"/>
<path d="M1744.48 464.628L1738.46 484.004H1709.24L1715.26 464.628H1744.48ZM1732.58 502.842L1689.6 637.929H1660.39L1703.37 502.842H1732.58Z" stroke="#DBD9FF" stroke-width="3"/>
<path d="M1621.73 464.628H1634.79V481.955L1568.4 550.238L1567.38 551.284L1568.4 552.33L1634.79 620.613V637.929H1621.73L1549.61 563.76V538.797L1621.73 464.628Z" stroke="#DBD9FF" stroke-width="3"/>
<path d="M1770.06 481.956V464.628H1783.12L1855.24 538.797V563.76L1783.12 637.929H1770.06V620.613L1836.46 552.33L1837.47 551.284L1836.46 550.238L1770.06 481.956Z" stroke="#DBD9FF" stroke-width="3"/>
<path d="M1347.67 697.5L1341.65 716.876H1312.43L1318.46 697.5H1347.67ZM1335.77 735.714L1292.8 870.801H1263.58L1306.56 735.714H1335.77Z" stroke="#DBD9FF" stroke-width="3"/>
<path d="M1224.93 697.5H1237.99V714.828L1171.59 783.11L1170.58 784.156L1171.59 785.202L1237.99 853.485V870.801H1224.93L1152.81 796.632V771.669L1224.93 697.5Z" stroke="#DBD9FF" stroke-width="3"/>
<path d="M1373.26 714.828V697.5H1386.32L1458.44 771.669V796.632L1386.32 870.801H1373.26V853.485L1439.65 785.202L1440.67 784.156L1439.65 783.11L1373.26 714.828Z" stroke="#DBD9FF" stroke-width="3"/>
<path d="M1744.48 697.5L1738.46 716.876H1709.24L1715.26 697.5H1744.48ZM1732.58 735.714L1689.6 870.801H1660.39L1703.37 735.714H1732.58Z" stroke="#DBD9FF" stroke-width="3"/>
<path d="M1621.73 697.5H1634.79V714.828L1568.4 783.11L1567.38 784.156L1568.4 785.202L1634.79 853.485V870.801H1621.73L1549.61 796.632V771.669L1621.73 697.5Z" stroke="#DBD9FF" stroke-width="3"/>
<path d="M1770.06 714.828V697.5H1783.12L1855.24 771.669V796.632L1783.12 870.801H1770.06V853.485L1836.46 785.202L1837.47 784.156L1836.46 783.11L1770.06 714.828Z" stroke="#DBD9FF" stroke-width="3"/>
<path d="M1347.67 930.5L1341.65 949.876H1312.43L1318.46 930.5H1347.67ZM1335.77 968.714L1292.8 1103.8H1263.58L1306.56 968.714H1335.77Z" stroke="#DBD9FF" stroke-width="3"/>
<path d="M1224.93 930.5H1237.99V947.828L1171.59 1016.11L1170.58 1017.16L1171.59 1018.2L1237.99 1086.48V1103.8H1224.93L1152.81 1029.63V1004.67L1224.93 930.5Z" stroke="#DBD9FF" stroke-width="3"/>
<path d="M1373.26 947.828V930.5H1386.32L1458.44 1004.67V1029.63L1386.32 1103.8H1373.26V1086.48L1439.65 1018.2L1440.67 1017.16L1439.65 1016.11L1373.26 947.828Z" stroke="#DBD9FF" stroke-width="3"/>
<path d="M1744.48 930.5L1738.46 949.876H1709.24L1715.26 930.5H1744.48ZM1732.58 968.714L1689.6 1103.8H1660.39L1703.37 968.714H1732.58Z" stroke="#DBD9FF" stroke-width="3"/>
<path d="M1621.73 930.5H1634.79V947.828L1568.4 1016.11L1567.38 1017.16L1568.4 1018.2L1634.79 1086.48V1103.8H1621.73L1549.61 1029.63V1004.67L1621.73 930.5Z" stroke="#DBD9FF" stroke-width="3"/>
<path d="M1770.06 947.828V930.5H1783.12L1855.24 1004.67V1029.63L1783.12 1103.8H1770.06V1086.48L1836.46 1018.2L1837.47 1017.16L1836.46 1016.11L1770.06 947.828Z" stroke="#DBD9FF" stroke-width="3"/>
</g>
</g>
</g>
</g>
<defs>
<linearGradient id="paint0_linear_4674_6142" x1="946" y1="0" x2="946" y2="1080" gradientUnits="userSpaceOnUse">
<stop/>
<stop offset="1" stop-opacity="0"/>
</linearGradient>
<clipPath id="clip0_4674_6142">
<rect width="1892" height="1080" fill="white"/>
</clipPath>
<clipPath id="clip1_4674_6142">
<rect width="1892" height="1080" fill="white"/>
</clipPath>
<clipPath id="clip2_4674_6142">
<rect width="2774" height="1080" fill="white" transform="translate(-441)"/>
</clipPath>
</defs>
</svg>
