<svg width="1920" height="625" viewBox="0 0 1920 625" fill="none" xmlns="http://www.w3.org/2000/svg">
<path d="M1546.32 64.9412L1545.87 66.3746H1547.94L1548.39 64.9412H1546.32ZM1542.75 76.2353H1544.82L1547.63 67.3892H1545.56L1542.75 76.2353Z" fill="#3D0491"/>
<path d="M1541.34 66.1863L1537.06 70.5886L1541.34 74.9909V76.2353H1540.36L1535.69 71.4268V69.7496L1540.36 64.9412H1541.34V66.1863Z" fill="#3D0491"/>
<path d="M1549.8 66.1863L1554.08 70.5886L1549.8 74.9909V76.2353H1550.77L1555.44 71.4268V69.7496L1550.77 64.9412H1549.8V66.1863Z" fill="#3D0491"/>
<path d="M1546.32 64.9412L1545.87 66.3746H1547.94L1548.39 64.9412H1546.32ZM1542.75 76.2353H1544.82L1547.63 67.3892H1545.56L1542.75 76.2353Z" fill="#3D0491"/>
<path d="M1541.34 66.1863L1537.06 70.5886L1541.34 74.9909V76.2353H1540.36L1535.69 71.4268V69.7496L1540.36 64.9412H1541.34V66.1863Z" fill="#3D0491"/>
<path d="M1549.8 66.1863L1554.08 70.5886L1549.8 74.9909V76.2353H1550.77L1555.44 71.4268V69.7496L1550.77 64.9412H1549.8V66.1863Z" fill="#3D0491"/>
<path d="M1546.32 98.8237L1545.87 100.257H1547.94L1548.39 98.8237H1546.32ZM1542.75 110.118H1544.82L1547.63 101.272H1545.56L1542.75 110.118Z" fill="#3D0491"/>
<path d="M1541.34 100.069L1537.06 104.471L1541.34 108.873V110.118H1540.36L1535.69 105.309V103.632L1540.36 98.8237H1541.34V100.069Z" fill="#3D0491"/>
<path d="M1549.8 100.069L1554.08 104.471L1549.8 108.873V110.118H1550.77L1555.44 105.309V103.632L1550.77 98.8237H1549.8V100.069Z" fill="#3D0491"/>
<path d="M1546.32 132.706L1545.87 134.139H1547.94L1548.39 132.706H1546.32ZM1542.75 144H1544.82L1547.63 135.154H1545.56L1542.75 144Z" fill="#3D0491"/>
<path d="M1541.34 133.951L1537.06 138.353L1541.34 142.756V144H1540.36L1535.69 139.191V137.514L1540.36 132.706H1541.34V133.951Z" fill="#3D0491"/>
<path d="M1549.8 133.951L1554.08 138.353L1549.8 142.756V144H1550.77L1555.44 139.191V137.514L1550.77 132.706H1549.8V133.951Z" fill="#3D0491"/>
<path d="M1571.71 64.9412L1571.26 66.3746H1573.33L1573.78 64.9412H1571.71ZM1568.14 76.2353H1570.21L1573.02 67.3892H1570.95L1568.14 76.2353Z" fill="#3D0491"/>
<path d="M1566.73 66.1863L1562.45 70.5886L1566.73 74.9909V76.2353H1565.75L1561.08 71.4268V69.7496L1565.75 64.9412H1566.73V66.1863Z" fill="#3D0491"/>
<path d="M1575.19 66.1863L1579.46 70.5886L1575.19 74.9909V76.2353H1576.16L1580.83 71.4268V69.7496L1576.16 64.9412H1575.19V66.1863Z" fill="#3D0491"/>
<path d="M1571.71 64.9412L1571.26 66.3746H1573.33L1573.78 64.9412H1571.71ZM1568.14 76.2353H1570.21L1573.02 67.3892H1570.95L1568.14 76.2353Z" fill="#3D0491"/>
<path d="M1566.73 66.1863L1562.45 70.5886L1566.73 74.9909V76.2353H1565.75L1561.08 71.4268V69.7496L1565.75 64.9412H1566.73V66.1863Z" fill="#3D0491"/>
<path d="M1575.19 66.1863L1579.46 70.5886L1575.19 74.9909V76.2353H1576.16L1580.83 71.4268V69.7496L1576.16 64.9412H1575.19V66.1863Z" fill="#3D0491"/>
<path d="M1571.71 98.8237L1571.26 100.257H1573.33L1573.78 98.8237H1571.71ZM1568.14 110.118H1570.21L1573.02 101.272H1570.95L1568.14 110.118Z" fill="#3D0491"/>
<path d="M1566.73 100.069L1562.45 104.471L1566.73 108.873V110.118H1565.75L1561.08 105.309V103.632L1565.75 98.8237H1566.73V100.069Z" fill="#3D0491"/>
<path d="M1575.19 100.069L1579.46 104.471L1575.19 108.873V110.118H1576.16L1580.83 105.309V103.632L1576.16 98.8237H1575.19V100.069Z" fill="#3D0491"/>
<path d="M1571.71 132.706L1571.26 134.139H1573.33L1573.78 132.706H1571.71ZM1568.14 144H1570.21L1573.02 135.154H1570.95L1568.14 144Z" fill="#3D0491"/>
<path d="M1566.73 133.951L1562.45 138.353L1566.73 142.756V144H1565.75L1561.08 139.191V137.514L1565.75 132.706H1566.73V133.951Z" fill="#3D0491"/>
<path d="M1575.19 133.951L1579.46 138.353L1575.19 142.756V144H1576.16L1580.83 139.191V137.514L1576.16 132.706H1575.19V133.951Z" fill="#3D0491"/>
<path d="M1597.1 64.9412L1596.65 66.3746H1598.72L1599.17 64.9412H1597.1ZM1593.53 76.2353H1595.6L1598.41 67.3892H1596.34L1593.53 76.2353Z" fill="#3D0491"/>
<path d="M1592.12 66.1863L1587.84 70.5886L1592.12 74.9909V76.2353H1591.14L1586.47 71.4268V69.7496L1591.14 64.9412H1592.12V66.1863Z" fill="#3D0491"/>
<path d="M1600.58 66.1863L1604.85 70.5886L1600.58 74.9909V76.2353H1601.55L1606.22 71.4268V69.7496L1601.55 64.9412H1600.58V66.1863Z" fill="#3D0491"/>
<path d="M1597.1 64.9412L1596.65 66.3746H1598.72L1599.17 64.9412H1597.1ZM1593.53 76.2353H1595.6L1598.41 67.3892H1596.34L1593.53 76.2353Z" fill="#3D0491"/>
<path d="M1592.12 66.1863L1587.84 70.5886L1592.12 74.9909V76.2353H1591.14L1586.47 71.4268V69.7496L1591.14 64.9412H1592.12V66.1863Z" fill="#3D0491"/>
<path d="M1600.58 66.1863L1604.85 70.5886L1600.58 74.9909V76.2353H1601.55L1606.22 71.4268V69.7496L1601.55 64.9412H1600.58V66.1863Z" fill="#3D0491"/>
<path d="M1597.1 98.8237L1596.65 100.257H1598.72L1599.17 98.8237H1597.1ZM1593.53 110.118H1595.6L1598.41 101.272H1596.34L1593.53 110.118Z" fill="#3D0491"/>
<path d="M1592.12 100.069L1587.84 104.471L1592.12 108.873V110.118H1591.14L1586.47 105.309V103.632L1591.14 98.8237H1592.12V100.069Z" fill="#3D0491"/>
<path d="M1600.58 100.069L1604.85 104.471L1600.58 108.873V110.118H1601.55L1606.22 105.309V103.632L1601.55 98.8237H1600.58V100.069Z" fill="#3D0491"/>
<path d="M1597.1 132.706L1596.65 134.139H1598.72L1599.17 132.706H1597.1ZM1593.53 144H1595.6L1598.41 135.154H1596.34L1593.53 144Z" fill="#3D0491"/>
<path d="M1592.12 133.951L1587.84 138.353L1592.12 142.756V144H1591.14L1586.47 139.191V137.514L1591.14 132.706H1592.12V133.951Z" fill="#3D0491"/>
<path d="M1600.58 133.951L1604.85 138.353L1600.58 142.756V144H1601.55L1606.22 139.191V137.514L1601.55 132.706H1600.58V133.951Z" fill="#3D0491"/>
<path d="M1622.49 64.9412L1622.04 66.3746H1624.11L1624.56 64.9412H1622.49ZM1618.92 76.2353H1620.99L1623.8 67.3892H1621.73L1618.92 76.2353Z" fill="#3D0491"/>
<path d="M1617.51 66.1863L1613.23 70.5886L1617.51 74.9909V76.2353H1616.53L1611.86 71.4268V69.7496L1616.53 64.9412H1617.51V66.1863Z" fill="#3D0491"/>
<path d="M1625.97 66.1863L1630.24 70.5886L1625.97 74.9909V76.2353H1626.94L1631.61 71.4268V69.7496L1626.94 64.9412H1625.97V66.1863Z" fill="#3D0491"/>
<path d="M1622.49 64.9412L1622.04 66.3746H1624.11L1624.56 64.9412H1622.49ZM1618.92 76.2353H1620.99L1623.8 67.3892H1621.73L1618.92 76.2353Z" fill="#3D0491"/>
<path d="M1617.51 66.1863L1613.23 70.5886L1617.51 74.9909V76.2353H1616.53L1611.86 71.4268V69.7496L1616.53 64.9412H1617.51V66.1863Z" fill="#3D0491"/>
<path d="M1625.97 66.1863L1630.24 70.5886L1625.97 74.9909V76.2353H1626.94L1631.61 71.4268V69.7496L1626.94 64.9412H1625.97V66.1863Z" fill="#3D0491"/>
<path d="M1622.49 98.8237L1622.04 100.257H1624.11L1624.56 98.8237H1622.49ZM1618.92 110.118H1620.99L1623.8 101.272H1621.73L1618.92 110.118Z" fill="#3D0491"/>
<path d="M1617.51 100.069L1613.23 104.471L1617.51 108.873V110.118H1616.53L1611.86 105.309V103.632L1616.53 98.8237H1617.51V100.069Z" fill="#3D0491"/>
<path d="M1625.97 100.069L1630.24 104.471L1625.97 108.873V110.118H1626.94L1631.61 105.309V103.632L1626.94 98.8237H1625.97V100.069Z" fill="#3D0491"/>
<path d="M1622.49 132.706L1622.04 134.139H1624.11L1624.56 132.706H1622.49ZM1618.92 144H1620.99L1623.8 135.154H1621.73L1618.92 144Z" fill="#3D0491"/>
<path d="M1617.51 133.951L1613.23 138.353L1617.51 142.756V144H1616.53L1611.86 139.191V137.514L1616.53 132.706H1617.51V133.951Z" fill="#3D0491"/>
<path d="M1625.97 133.951L1630.24 138.353L1625.97 142.756V144H1626.94L1631.61 139.191V137.514L1626.94 132.706H1625.97V133.951Z" fill="#3D0491"/>
<path d="M1533.62 48L1533.18 49.4334H1535.25L1535.69 48H1533.62ZM1530.05 59.2941H1532.12L1534.93 50.4481H1532.86L1530.05 59.2941Z" fill="#3D0491"/>
<path d="M1528.64 49.2451L1524.37 53.6474L1528.64 58.0497V59.2941H1527.67L1523 54.4857V52.8084L1527.67 48H1528.64V49.2451Z" fill="#3D0491"/>
<path d="M1537.1 49.2451L1541.38 53.6474L1537.1 58.0497V59.2941H1538.08L1542.75 54.4857V52.8084L1538.08 48H1537.1V49.2451Z" fill="#3D0491"/>
<path d="M1533.62 48L1533.18 49.4334H1535.25L1535.69 48H1533.62ZM1530.05 59.2941H1532.12L1534.93 50.4481H1532.86L1530.05 59.2941Z" fill="#3D0491"/>
<path d="M1528.64 49.2451L1524.37 53.6474L1528.64 58.0497V59.2941H1527.67L1523 54.4857V52.8084L1527.67 48H1528.64V49.2451Z" fill="#3D0491"/>
<path d="M1537.1 49.2451L1541.38 53.6474L1537.1 58.0497V59.2941H1538.08L1542.75 54.4857V52.8084L1538.08 48H1537.1V49.2451Z" fill="#3D0491"/>
<path d="M1533.62 81.8823L1533.18 83.3158H1535.25L1535.69 81.8823H1533.62ZM1530.05 93.1764H1532.12L1534.93 84.3304H1532.86L1530.05 93.1764Z" fill="#3D0491"/>
<path d="M1528.64 83.1275L1524.37 87.5297L1528.64 91.932V93.1764H1527.67L1523 88.368V86.6908L1527.67 81.8823H1528.64V83.1275Z" fill="#3D0491"/>
<path d="M1537.1 83.1275L1541.38 87.5297L1537.1 91.932V93.1764H1538.08L1542.75 88.368V86.6908L1538.08 81.8823H1537.1V83.1275Z" fill="#3D0491"/>
<path d="M1533.62 115.765L1533.18 117.198H1535.25L1535.69 115.765H1533.62ZM1530.05 127.059H1532.12L1534.93 118.213H1532.86L1530.05 127.059Z" fill="#3D0491"/>
<path d="M1528.64 117.01L1524.37 121.412L1528.64 125.814V127.059H1527.67L1523 122.25V120.573L1527.67 115.765H1528.64V117.01Z" fill="#3D0491"/>
<path d="M1537.1 117.01L1541.38 121.412L1537.1 125.814V127.059H1538.08L1542.75 122.25V120.573L1538.08 115.765H1537.1V117.01Z" fill="#3D0491"/>
<path d="M1559.01 48L1558.57 49.4334H1560.64L1561.08 48H1559.01ZM1555.44 59.2941H1557.51L1560.32 50.4481H1558.25L1555.44 59.2941Z" fill="#3D0491"/>
<path d="M1554.03 49.2451L1549.76 53.6474L1554.03 58.0497V59.2941H1553.06L1548.39 54.4857V52.8084L1553.06 48H1554.03V49.2451Z" fill="#3D0491"/>
<path d="M1562.5 49.2451L1566.77 53.6474L1562.5 58.0497V59.2941H1563.47L1568.14 54.4857V52.8084L1563.47 48H1562.5V49.2451Z" fill="#3D0491"/>
<path d="M1559.01 48L1558.57 49.4334H1560.64L1561.08 48H1559.01ZM1555.44 59.2941H1557.51L1560.32 50.4481H1558.25L1555.44 59.2941Z" fill="#3D0491"/>
<path d="M1554.03 49.2451L1549.76 53.6474L1554.03 58.0497V59.2941H1553.06L1548.39 54.4857V52.8084L1553.06 48H1554.03V49.2451Z" fill="#3D0491"/>
<path d="M1562.5 49.2451L1566.77 53.6474L1562.5 58.0497V59.2941H1563.47L1568.14 54.4857V52.8084L1563.47 48H1562.5V49.2451Z" fill="#3D0491"/>
<path d="M1559.01 81.8823L1558.57 83.3158H1560.64L1561.08 81.8823H1559.01ZM1555.44 93.1764H1557.51L1560.32 84.3304H1558.25L1555.44 93.1764Z" fill="#3D0491"/>
<path d="M1554.03 83.1275L1549.76 87.5297L1554.03 91.932V93.1764H1553.06L1548.39 88.368V86.6908L1553.06 81.8823H1554.03V83.1275Z" fill="#3D0491"/>
<path d="M1562.5 83.1275L1566.77 87.5297L1562.5 91.932V93.1764H1563.47L1568.14 88.368V86.6908L1563.47 81.8823H1562.5V83.1275Z" fill="#3D0491"/>
<path d="M1559.01 115.765L1558.57 117.198H1560.64L1561.08 115.765H1559.01ZM1555.44 127.059H1557.51L1560.32 118.213H1558.25L1555.44 127.059Z" fill="#3D0491"/>
<path d="M1554.03 117.01L1549.76 121.412L1554.03 125.814V127.059H1553.06L1548.39 122.25V120.573L1553.06 115.765H1554.03V117.01Z" fill="#3D0491"/>
<path d="M1562.5 117.01L1566.77 121.412L1562.5 125.814V127.059H1563.47L1568.14 122.25V120.573L1563.47 115.765H1562.5V117.01Z" fill="#3D0491"/>
<path d="M1584.4 48L1583.96 49.4334H1586.03L1586.47 48H1584.4ZM1580.83 59.2941H1582.9L1585.71 50.4481H1583.64L1580.83 59.2941Z" fill="#3D0491"/>
<path d="M1579.42 49.2451L1575.15 53.6474L1579.42 58.0497V59.2941H1578.45L1573.78 54.4857V52.8084L1578.45 48H1579.42V49.2451Z" fill="#3D0491"/>
<path d="M1587.88 49.2451L1592.16 53.6474L1587.88 58.0497V59.2941H1588.86L1593.53 54.4857V52.8084L1588.86 48H1587.88V49.2451Z" fill="#3D0491"/>
<path d="M1584.4 48L1583.96 49.4334H1586.03L1586.47 48H1584.4ZM1580.83 59.2941H1582.9L1585.71 50.4481H1583.64L1580.83 59.2941Z" fill="#3D0491"/>
<path d="M1579.42 49.2451L1575.15 53.6474L1579.42 58.0497V59.2941H1578.45L1573.78 54.4857V52.8084L1578.45 48H1579.42V49.2451Z" fill="#3D0491"/>
<path d="M1587.88 49.2451L1592.16 53.6474L1587.88 58.0497V59.2941H1588.86L1593.53 54.4857V52.8084L1588.86 48H1587.88V49.2451Z" fill="#3D0491"/>
<path d="M1584.4 81.8823L1583.96 83.3158H1586.03L1586.47 81.8823H1584.4ZM1580.83 93.1764H1582.9L1585.71 84.3304H1583.64L1580.83 93.1764Z" fill="#3D0491"/>
<path d="M1579.42 83.1275L1575.15 87.5297L1579.42 91.932V93.1764H1578.45L1573.78 88.368V86.6908L1578.45 81.8823H1579.42V83.1275Z" fill="#3D0491"/>
<path d="M1587.88 83.1275L1592.16 87.5297L1587.88 91.932V93.1764H1588.86L1593.53 88.368V86.6908L1588.86 81.8823H1587.88V83.1275Z" fill="#3D0491"/>
<path d="M1584.4 115.765L1583.96 117.198H1586.03L1586.47 115.765H1584.4ZM1580.83 127.059H1582.9L1585.71 118.213H1583.64L1580.83 127.059Z" fill="#3D0491"/>
<path d="M1579.42 117.01L1575.15 121.412L1579.42 125.814V127.059H1578.45L1573.78 122.25V120.573L1578.45 115.765H1579.42V117.01Z" fill="#3D0491"/>
<path d="M1587.88 117.01L1592.16 121.412L1587.88 125.814V127.059H1588.86L1593.53 122.25V120.573L1588.86 115.765H1587.88V117.01Z" fill="#3D0491"/>
<path d="M1609.79 48L1609.35 49.4334H1611.42L1611.86 48H1609.79ZM1606.22 59.2941H1608.29L1611.1 50.4481H1609.03L1606.22 59.2941Z" fill="#3D0491"/>
<path d="M1604.81 49.2451L1600.54 53.6474L1604.81 58.0497V59.2941H1603.84L1599.17 54.4857V52.8084L1603.84 48H1604.81V49.2451Z" fill="#3D0491"/>
<path d="M1613.27 49.2451L1617.55 53.6474L1613.27 58.0497V59.2941H1614.25L1618.92 54.4857V52.8084L1614.25 48H1613.27V49.2451Z" fill="#3D0491"/>
<path d="M1609.79 48L1609.35 49.4334H1611.42L1611.86 48H1609.79ZM1606.22 59.2941H1608.29L1611.1 50.4481H1609.03L1606.22 59.2941Z" fill="#3D0491"/>
<path d="M1604.81 49.2451L1600.54 53.6474L1604.81 58.0497V59.2941H1603.84L1599.17 54.4857V52.8084L1603.84 48H1604.81V49.2451Z" fill="#3D0491"/>
<path d="M1613.27 49.2451L1617.55 53.6474L1613.27 58.0497V59.2941H1614.25L1618.92 54.4857V52.8084L1614.25 48H1613.27V49.2451Z" fill="#3D0491"/>
<path d="M1609.79 81.8823L1609.35 83.3158H1611.42L1611.86 81.8823H1609.79ZM1606.22 93.1764H1608.29L1611.1 84.3304H1609.03L1606.22 93.1764Z" fill="#3D0491"/>
<path d="M1604.81 83.1275L1600.54 87.5297L1604.81 91.932V93.1764H1603.84L1599.17 88.368V86.6908L1603.84 81.8823H1604.81V83.1275Z" fill="#3D0491"/>
<path d="M1613.27 83.1275L1617.55 87.5297L1613.27 91.932V93.1764H1614.25L1618.92 88.368V86.6908L1614.25 81.8823H1613.27V83.1275Z" fill="#3D0491"/>
<path d="M1609.79 115.765L1609.35 117.198H1611.42L1611.86 115.765H1609.79ZM1606.22 127.059H1608.29L1611.1 118.213H1609.03L1606.22 127.059Z" fill="#3D0491"/>
<path d="M1604.81 117.01L1600.54 121.412L1604.81 125.814V127.059H1603.84L1599.17 122.25V120.573L1603.84 115.765H1604.81V117.01Z" fill="#3D0491"/>
<path d="M1613.27 117.01L1617.55 121.412L1613.27 125.814V127.059H1614.25L1618.92 122.25V120.573L1614.25 115.765H1613.27V117.01Z" fill="#3D0491"/>
<path d="M311.319 497.941L310.874 499.375H312.944L313.39 497.941H311.319ZM307.748 509.235H309.818L312.629 500.389H310.559L307.748 509.235Z" fill="#EF4136"/>
<path d="M306.337 499.186L302.061 503.589L306.337 507.991V509.235H305.365L300.695 504.427V502.75L305.365 497.941H306.337V499.186Z" fill="#EF4136"/>
<path d="M314.8 499.186L319.075 503.589L314.8 507.991V509.235H315.772L320.442 504.427V502.75L315.772 497.941H314.8V499.186Z" fill="#EF4136"/>
<path d="M311.319 497.941L310.874 499.375H312.944L313.39 497.941H311.319ZM307.748 509.235H309.818L312.629 500.389H310.559L307.748 509.235Z" fill="#EF4136"/>
<path d="M306.337 499.186L302.061 503.589L306.337 507.991V509.235H305.365L300.695 504.427V502.75L305.365 497.941H306.337V499.186Z" fill="#EF4136"/>
<path d="M314.8 499.186L319.075 503.589L314.8 507.991V509.235H315.772L320.442 504.427V502.75L315.772 497.941H314.8V499.186Z" fill="#EF4136"/>
<path d="M311.319 531.824L310.874 533.257H312.944L313.39 531.824H311.319ZM307.748 543.118H309.818L312.629 534.272H310.559L307.748 543.118Z" fill="#EF4136"/>
<path d="M306.337 533.069L302.061 537.471L306.337 541.873V543.118H305.365L300.695 538.309V536.632L305.365 531.824H306.337V533.069Z" fill="#EF4136"/>
<path d="M314.8 533.069L319.075 537.471L314.8 541.873V543.118H315.772L320.442 538.309V536.632L315.772 531.824H314.8V533.069Z" fill="#EF4136"/>
<path d="M311.319 565.706L310.874 567.139H312.944L313.39 565.706H311.319ZM307.748 577H309.818L312.629 568.154H310.559L307.748 577Z" fill="#EF4136"/>
<path d="M306.337 566.951L302.061 571.353L306.337 575.756V577H305.365L300.695 572.192V570.514L305.365 565.706H306.337V566.951Z" fill="#EF4136"/>
<path d="M314.8 566.951L319.075 571.353L314.8 575.756V577H315.772L320.442 572.192V570.514L315.772 565.706H314.8V566.951Z" fill="#EF4136"/>
<path d="M336.709 497.941L336.264 499.375H338.334L338.779 497.941H336.709ZM333.137 509.235H335.208L338.019 500.389H335.948L333.137 509.235Z" fill="#EF4136"/>
<path d="M331.727 499.186L327.451 503.589L331.727 507.991V509.235H330.754L326.084 504.427V502.75L330.754 497.941H331.727V499.186Z" fill="#EF4136"/>
<path d="M340.189 499.186L344.465 503.589L340.189 507.991V509.235H341.162L345.832 504.427V502.75L341.162 497.941H340.189V499.186Z" fill="#EF4136"/>
<path d="M336.709 497.941L336.264 499.375H338.334L338.779 497.941H336.709ZM333.137 509.235H335.208L338.019 500.389H335.948L333.137 509.235Z" fill="#EF4136"/>
<path d="M331.727 499.186L327.451 503.589L331.727 507.991V509.235H330.754L326.084 504.427V502.75L330.754 497.941H331.727V499.186Z" fill="#EF4136"/>
<path d="M340.189 499.186L344.465 503.589L340.189 507.991V509.235H341.162L345.832 504.427V502.75L341.162 497.941H340.189V499.186Z" fill="#EF4136"/>
<path d="M336.709 531.824L336.264 533.257H338.334L338.779 531.824H336.709ZM333.137 543.118H335.208L338.019 534.272H335.948L333.137 543.118Z" fill="#EF4136"/>
<path d="M331.727 533.069L327.451 537.471L331.727 541.873V543.118H330.754L326.084 538.309V536.632L330.754 531.824H331.727V533.069Z" fill="#EF4136"/>
<path d="M340.189 533.069L344.465 537.471L340.189 541.873V543.118H341.162L345.832 538.309V536.632L341.162 531.824H340.189V533.069Z" fill="#EF4136"/>
<path d="M336.709 565.706L336.264 567.139H338.334L338.779 565.706H336.709ZM333.137 577H335.208L338.019 568.154H335.948L333.137 577Z" fill="#EF4136"/>
<path d="M331.727 566.951L327.451 571.353L331.727 575.756V577H330.754L326.084 572.192V570.514L330.754 565.706H331.727V566.951Z" fill="#EF4136"/>
<path d="M340.189 566.951L344.465 571.353L340.189 575.756V577H341.162L345.832 572.192V570.514L341.162 565.706H340.189V566.951Z" fill="#EF4136"/>
<path d="M362.098 497.941L361.653 499.375H363.723L364.168 497.941H362.098ZM358.526 509.235H360.597L363.408 500.389H361.337L358.526 509.235Z" fill="#EF4136"/>
<path d="M357.116 499.186L352.841 503.589L357.116 507.991V509.235H356.144L351.474 504.427V502.75L356.144 497.941H357.116V499.186Z" fill="#EF4136"/>
<path d="M365.579 499.186L369.855 503.589L365.579 507.991V509.235H366.551L371.221 504.427V502.75L366.551 497.941H365.579V499.186Z" fill="#EF4136"/>
<path d="M362.098 497.941L361.653 499.375H363.723L364.168 497.941H362.098ZM358.526 509.235H360.597L363.408 500.389H361.337L358.526 509.235Z" fill="#EF4136"/>
<path d="M357.116 499.186L352.841 503.589L357.116 507.991V509.235H356.144L351.474 504.427V502.75L356.144 497.941H357.116V499.186Z" fill="#EF4136"/>
<path d="M365.579 499.186L369.855 503.589L365.579 507.991V509.235H366.551L371.221 504.427V502.75L366.551 497.941H365.579V499.186Z" fill="#EF4136"/>
<path d="M362.098 531.824L361.653 533.257H363.723L364.168 531.824H362.098ZM358.526 543.118H360.597L363.408 534.272H361.337L358.526 543.118Z" fill="#EF4136"/>
<path d="M357.116 533.069L352.841 537.471L357.116 541.873V543.118H356.144L351.474 538.309V536.632L356.144 531.824H357.116V533.069Z" fill="#EF4136"/>
<path d="M365.579 533.069L369.855 537.471L365.579 541.873V543.118H366.551L371.221 538.309V536.632L366.551 531.824H365.579V533.069Z" fill="#EF4136"/>
<path d="M362.098 565.706L361.653 567.139H363.723L364.168 565.706H362.098ZM358.526 577H360.597L363.408 568.154H361.337L358.526 577Z" fill="#EF4136"/>
<path d="M357.116 566.951L352.841 571.353L357.116 575.756V577H356.144L351.474 572.192V570.514L356.144 565.706H357.116V566.951Z" fill="#EF4136"/>
<path d="M365.579 566.951L369.855 571.353L365.579 575.756V577H366.551L371.221 572.192V570.514L366.551 565.706H365.579V566.951Z" fill="#EF4136"/>
<path d="M387.488 497.941L387.042 499.375H389.113L389.558 497.941H387.488ZM383.916 509.235H385.987L388.797 500.389H386.727L383.916 509.235Z" fill="#EF4136"/>
<path d="M382.505 499.186L378.23 503.589L382.505 507.991V509.235H381.533L376.863 504.427V502.75L381.533 497.941H382.505V499.186Z" fill="#EF4136"/>
<path d="M390.969 499.186L395.244 503.589L390.969 507.991V509.235H391.941L396.611 504.427V502.75L391.941 497.941H390.969V499.186Z" fill="#EF4136"/>
<path d="M387.488 497.941L387.042 499.375H389.113L389.558 497.941H387.488ZM383.916 509.235H385.987L388.797 500.389H386.727L383.916 509.235Z" fill="#EF4136"/>
<path d="M382.505 499.186L378.23 503.589L382.505 507.991V509.235H381.533L376.863 504.427V502.75L381.533 497.941H382.505V499.186Z" fill="#EF4136"/>
<path d="M390.969 499.186L395.244 503.589L390.969 507.991V509.235H391.941L396.611 504.427V502.75L391.941 497.941H390.969V499.186Z" fill="#EF4136"/>
<path d="M387.488 531.824L387.042 533.257H389.113L389.558 531.824H387.488ZM383.916 543.118H385.987L388.797 534.272H386.727L383.916 543.118Z" fill="#EF4136"/>
<path d="M382.505 533.069L378.23 537.471L382.505 541.873V543.118H381.533L376.863 538.309V536.632L381.533 531.824H382.505V533.069Z" fill="#EF4136"/>
<path d="M390.969 533.069L395.244 537.471L390.969 541.873V543.118H391.941L396.611 538.309V536.632L391.941 531.824H390.969V533.069Z" fill="#EF4136"/>
<path d="M387.488 565.706L387.042 567.139H389.113L389.558 565.706H387.488ZM383.916 577H385.987L388.797 568.154H386.727L383.916 577Z" fill="#EF4136"/>
<path d="M382.505 566.951L378.23 571.353L382.505 575.756V577H381.533L376.863 572.192V570.514L381.533 565.706H382.505V566.951Z" fill="#EF4136"/>
<path d="M390.969 566.951L395.244 571.353L390.969 575.756V577H391.941L396.611 572.192V570.514L391.941 565.706H390.969V566.951Z" fill="#EF4136"/>
<path d="M298.624 481L298.179 482.433H300.25L300.695 481H298.624ZM295.053 492.294H297.123L299.934 483.448H297.864L295.053 492.294Z" fill="#EF4136"/>
<path d="M293.642 482.245L289.367 486.647L293.642 491.05V492.294H292.67L288 487.486V485.808L292.67 481H293.642V482.245Z" fill="#EF4136"/>
<path d="M302.105 482.245L306.38 486.647L302.105 491.05V492.294H303.077L307.747 487.486V485.808L303.077 481H302.105V482.245Z" fill="#EF4136"/>
<path d="M298.624 481L298.179 482.433H300.25L300.695 481H298.624ZM295.053 492.294H297.123L299.934 483.448H297.864L295.053 492.294Z" fill="#EF4136"/>
<path d="M293.642 482.245L289.367 486.647L293.642 491.05V492.294H292.67L288 487.486V485.808L292.67 481H293.642V482.245Z" fill="#EF4136"/>
<path d="M302.105 482.245L306.38 486.647L302.105 491.05V492.294H303.077L307.747 487.486V485.808L303.077 481H302.105V482.245Z" fill="#EF4136"/>
<path d="M298.624 514.882L298.179 516.316H300.25L300.695 514.882H298.624ZM295.053 526.177H297.123L299.934 517.33H297.864L295.053 526.177Z" fill="#EF4136"/>
<path d="M293.642 516.128L289.367 520.53L293.642 524.932V526.177H292.67L288 521.368V519.691L292.67 514.882H293.642V516.128Z" fill="#EF4136"/>
<path d="M302.105 516.128L306.38 520.53L302.105 524.932V526.177H303.077L307.747 521.368V519.691L303.077 514.882H302.105V516.128Z" fill="#EF4136"/>
<path d="M298.624 548.765L298.179 550.198H300.25L300.695 548.765H298.624ZM295.053 560.059H297.123L299.934 551.213H297.864L295.053 560.059Z" fill="#EF4136"/>
<path d="M293.642 550.01L289.367 554.412L293.642 558.814V560.059H292.67L288 555.25V553.573L292.67 548.765H293.642V550.01Z" fill="#EF4136"/>
<path d="M302.105 550.01L306.38 554.412L302.105 558.814V560.059H303.077L307.747 555.25V553.573L303.077 548.765H302.105V550.01Z" fill="#EF4136"/>
<path d="M324.014 481L323.568 482.433H325.639L326.084 481H324.014ZM320.442 492.294H322.512L325.323 483.448H323.253L320.442 492.294Z" fill="#EF4136"/>
<path d="M319.032 482.245L314.756 486.647L319.032 491.05V492.294H318.06L313.39 487.486V485.808L318.06 481H319.032V482.245Z" fill="#EF4136"/>
<path d="M327.495 482.245L331.771 486.647L327.495 491.05V492.294H328.467L333.137 487.486V485.808L328.467 481H327.495V482.245Z" fill="#EF4136"/>
<path d="M324.014 481L323.568 482.433H325.639L326.084 481H324.014ZM320.442 492.294H322.512L325.323 483.448H323.253L320.442 492.294Z" fill="#EF4136"/>
<path d="M319.032 482.245L314.756 486.647L319.032 491.05V492.294H318.06L313.39 487.486V485.808L318.06 481H319.032V482.245Z" fill="#EF4136"/>
<path d="M327.495 482.245L331.771 486.647L327.495 491.05V492.294H328.467L333.137 487.486V485.808L328.467 481H327.495V482.245Z" fill="#EF4136"/>
<path d="M324.014 514.882L323.569 516.316H325.639L326.085 514.882H324.014ZM320.442 526.177H322.513L325.324 517.33H323.253L320.442 526.177Z" fill="#EF4136"/>
<path d="M319.032 516.128L314.756 520.53L319.032 524.932V526.177H318.06L313.39 521.368V519.691L318.06 514.882H319.032V516.128Z" fill="#EF4136"/>
<path d="M327.495 516.128L331.771 520.53L327.495 524.932V526.177H328.467L333.137 521.368V519.691L328.467 514.882H327.495V516.128Z" fill="#EF4136"/>
<path d="M324.014 548.765L323.569 550.198H325.639L326.085 548.765H324.014ZM320.442 560.059H322.513L325.324 551.213H323.253L320.442 560.059Z" fill="#EF4136"/>
<path d="M319.032 550.01L314.756 554.412L319.032 558.814V560.059H318.06L313.39 555.25V553.573L318.06 548.765H319.032V550.01Z" fill="#EF4136"/>
<path d="M327.495 550.01L331.771 554.412L327.495 558.814V560.059H328.467L333.137 555.25V553.573L328.467 548.765H327.495V550.01Z" fill="#EF4136"/>
<path d="M349.404 481L348.958 482.433H351.029L351.474 481H349.404ZM345.832 492.294H347.903L350.713 483.448H348.643L345.832 492.294Z" fill="#EF4136"/>
<path d="M344.421 482.245L340.145 486.647L344.421 491.05V492.294H343.449L338.779 487.486V485.808L343.449 481H344.421V482.245Z" fill="#EF4136"/>
<path d="M352.884 482.245L357.16 486.647L352.884 491.05V492.294H353.856L358.526 487.486V485.808L353.856 481H352.884V482.245Z" fill="#EF4136"/>
<path d="M349.404 481L348.958 482.433H351.029L351.474 481H349.404ZM345.832 492.294H347.903L350.713 483.448H348.643L345.832 492.294Z" fill="#EF4136"/>
<path d="M344.421 482.245L340.145 486.647L344.421 491.05V492.294H343.449L338.779 487.486V485.808L343.449 481H344.421V482.245Z" fill="#EF4136"/>
<path d="M352.884 482.245L357.16 486.647L352.884 491.05V492.294H353.856L358.526 487.486V485.808L353.856 481H352.884V482.245Z" fill="#EF4136"/>
<path d="M349.404 514.882L348.958 516.316H351.029L351.474 514.882H349.404ZM345.832 526.177H347.903L350.713 517.33H348.643L345.832 526.177Z" fill="#EF4136"/>
<path d="M344.421 516.128L340.145 520.53L344.421 524.932V526.177H343.449L338.779 521.368V519.691L343.449 514.882H344.421V516.128Z" fill="#EF4136"/>
<path d="M352.884 516.128L357.16 520.53L352.884 524.932V526.177H353.856L358.526 521.368V519.691L353.856 514.882H352.884V516.128Z" fill="#EF4136"/>
<path d="M349.404 548.765L348.958 550.198H351.029L351.474 548.765H349.404ZM345.832 560.059H347.903L350.713 551.213H348.643L345.832 560.059Z" fill="#EF4136"/>
<path d="M344.421 550.01L340.145 554.412L344.421 558.814V560.059H343.449L338.779 555.25V553.573L343.449 548.765H344.421V550.01Z" fill="#EF4136"/>
<path d="M352.884 550.01L357.16 554.412L352.884 558.814V560.059H353.856L358.526 555.25V553.573L353.856 548.765H352.884V550.01Z" fill="#EF4136"/>
<path d="M374.793 481L374.348 482.433H376.418L376.863 481H374.793ZM371.221 492.294H373.292L376.103 483.448H374.032L371.221 492.294Z" fill="#EF4136"/>
<path d="M369.811 482.245L365.535 486.647L369.811 491.05V492.294H368.838L364.168 487.486V485.808L368.838 481H369.811V482.245Z" fill="#EF4136"/>
<path d="M378.274 482.245L382.549 486.647L378.274 491.05V492.294H379.246L383.916 487.486V485.808L379.246 481H378.274V482.245Z" fill="#EF4136"/>
<path d="M374.793 481L374.348 482.433H376.418L376.863 481H374.793ZM371.221 492.294H373.292L376.103 483.448H374.032L371.221 492.294Z" fill="#EF4136"/>
<path d="M369.811 482.245L365.535 486.647L369.811 491.05V492.294H368.838L364.168 487.486V485.808L368.838 481H369.811V482.245Z" fill="#EF4136"/>
<path d="M378.274 482.245L382.549 486.647L378.274 491.05V492.294H379.246L383.916 487.486V485.808L379.246 481H378.274V482.245Z" fill="#EF4136"/>
<path d="M374.793 514.882L374.348 516.316H376.418L376.863 514.882H374.793ZM371.221 526.177H373.292L376.103 517.33H374.032L371.221 526.177Z" fill="#EF4136"/>
<path d="M369.811 516.128L365.535 520.53L369.811 524.932V526.177H368.838L364.168 521.368V519.691L368.838 514.882H369.811V516.128Z" fill="#EF4136"/>
<path d="M378.274 516.128L382.549 520.53L378.274 524.932V526.177H379.246L383.916 521.368V519.691L379.246 514.882H378.274V516.128Z" fill="#EF4136"/>
<path d="M374.793 548.765L374.348 550.198H376.418L376.863 548.765H374.793ZM371.221 560.059H373.292L376.103 551.213H374.032L371.221 560.059Z" fill="#EF4136"/>
<path d="M369.811 550.01L365.535 554.412L369.811 558.814V560.059H368.838L364.168 555.25V553.573L368.838 548.765H369.811V550.01Z" fill="#EF4136"/>
<path d="M378.274 550.01L382.549 554.412L378.274 558.814V560.059H379.246L383.916 555.25V553.573L379.246 548.765H378.274V550.01Z" fill="#EF4136"/>
</svg>
