<svg width="193" height="170" viewBox="0 0 193 170" fill="none" xmlns="http://www.w3.org/2000/svg">
<path d="M41.5873 30L40.8003 32.5384H44.4604L45.2474 30H41.5873ZM35.2734 50H38.9336L43.9027 34.3351H40.2425L35.2734 50Z" fill="#3D0491"/>
<path d="M32.7787 32.2049L25.2206 40.0006L32.7787 47.7963V50H31.0601L22.8047 41.485V38.515L31.0601 30H32.7787V32.2049Z" fill="#3D0491"/>
<path d="M47.7402 32.2049L55.2983 40.0006L47.7402 47.7963V50H49.4588L57.7142 41.485V38.515L49.4588 30H47.7402V32.2049Z" fill="#3D0491"/>
<path d="M41.5873 30L40.8003 32.5384H44.4604L45.2474 30H41.5873ZM35.2734 50H38.9336L43.9027 34.3351H40.2425L35.2734 50Z" fill="#3D0491"/>
<path d="M32.7787 32.2049L25.2206 40.0006L32.7787 47.7963V50H31.0601L22.8047 41.485V38.515L31.0601 30H32.7787V32.2049Z" fill="#3D0491"/>
<path d="M47.7402 32.2049L55.2983 40.0006L47.7402 47.7963V50H49.4588L57.7142 41.485V38.515L49.4588 30H47.7402V32.2049Z" fill="#3D0491"/>
<path d="M41.5873 90.0001L40.8003 92.5385H44.4604L45.2474 90.0001H41.5873ZM35.2734 110H38.9336L43.9027 94.3352H40.2425L35.2734 110Z" fill="#3D0491"/>
<path d="M32.7787 92.2051L25.2206 100.001L32.7787 107.796V110H31.0601L22.8047 101.485V98.5151L31.0601 90.0001H32.7787V92.2051Z" fill="#3D0491"/>
<path d="M47.7402 92.2051L55.2983 100.001L47.7402 107.796V110H49.4588L57.7142 101.485V98.5151L49.4588 90.0001H47.7402V92.2051Z" fill="#3D0491"/>
<path d="M41.5873 150L40.8003 152.538H44.4604L45.2474 150H41.5873ZM35.2734 170H38.9336L43.9027 154.335H40.2425L35.2734 170Z" fill="#3D0491"/>
<path d="M32.7787 152.205L25.2206 160.001L32.7787 167.796V170H31.0601L22.8047 161.485V158.515L31.0601 150H32.7787V152.205Z" fill="#3D0491"/>
<path d="M47.7402 152.205L55.2983 160.001L47.7402 167.796V170H49.4588L57.7142 161.485V158.515L49.4588 150H47.7402V152.205Z" fill="#3D0491"/>
<path d="M86.4681 30L85.6811 32.5384H89.3413L90.1283 30H86.4681ZM80.1543 50H83.8145L88.7836 34.3351H85.1234L80.1543 50Z" fill="#3D0491"/>
<path d="M77.6615 32.2049L70.1034 40.0006L77.6615 47.7963V50H75.9429L67.6875 41.485V38.515L75.9429 30H77.6615V32.2049Z" fill="#3D0491"/>
<path d="M92.6211 32.2049L100.179 40.0006L92.6211 47.7963V50H94.3397L102.595 41.485V38.515L94.3397 30H92.6211V32.2049Z" fill="#3D0491"/>
<path d="M86.4681 30L85.6811 32.5384H89.3413L90.1283 30H86.4681ZM80.1543 50H83.8145L88.7836 34.3351H85.1234L80.1543 50Z" fill="#3D0491"/>
<path d="M77.6615 32.2049L70.1034 40.0006L77.6615 47.7963V50H75.9429L67.6875 41.485V38.515L75.9429 30H77.6615V32.2049Z" fill="#3D0491"/>
<path d="M92.6211 32.2049L100.179 40.0006L92.6211 47.7963V50H94.3397L102.595 41.485V38.515L94.3397 30H92.6211V32.2049Z" fill="#3D0491"/>
<path d="M86.4681 90.0001L85.6811 92.5385H89.3413L90.1283 90.0001H86.4681ZM80.1543 110H83.8145L88.7836 94.3352H85.1234L80.1543 110Z" fill="#3D0491"/>
<path d="M77.6615 92.2051L70.1034 100.001L77.6615 107.796V110H75.9429L67.6875 101.485V98.5151L75.9429 90.0001H77.6615V92.2051Z" fill="#3D0491"/>
<path d="M92.6211 92.2051L100.179 100.001L92.6211 107.796V110H94.3397L102.595 101.485V98.5151L94.3397 90.0001H92.6211V92.2051Z" fill="#3D0491"/>
<path d="M86.4681 150L85.6811 152.538H89.3413L90.1283 150H86.4681ZM80.1543 170H83.8145L88.7836 154.335H85.1234L80.1543 170Z" fill="#3D0491"/>
<path d="M77.6615 152.205L70.1034 160.001L77.6615 167.796V170H75.9429L67.6875 161.485V158.515L75.9429 150H77.6615V152.205Z" fill="#3D0491"/>
<path d="M92.6211 152.205L100.179 160.001L92.6211 167.796V170H94.3397L102.595 161.485V158.515L94.3397 150H92.6211V152.205Z" fill="#3D0491"/>
<path d="M131.351 30L130.564 32.5384H134.224L135.011 30H131.351ZM125.037 50H128.697L133.666 34.3351H130.006L125.037 50Z" fill="#3D0491"/>
<path d="M122.544 32.2049L114.986 40.0006L122.544 47.7963V50H120.826L112.57 41.485V38.515L120.826 30H122.544V32.2049Z" fill="#3D0491"/>
<path d="M137.506 32.2049L145.064 40.0006L137.506 47.7963V50H139.224L147.48 41.485V38.515L139.224 30H137.506V32.2049Z" fill="#3D0491"/>
<path d="M131.351 30L130.564 32.5384H134.224L135.011 30H131.351ZM125.037 50H128.697L133.666 34.3351H130.006L125.037 50Z" fill="#3D0491"/>
<path d="M122.544 32.2049L114.986 40.0006L122.544 47.7963V50H120.826L112.57 41.485V38.515L120.826 30H122.544V32.2049Z" fill="#3D0491"/>
<path d="M137.506 32.2049L145.064 40.0006L137.506 47.7963V50H139.224L147.48 41.485V38.515L139.224 30H137.506V32.2049Z" fill="#3D0491"/>
<path d="M131.351 90.0001L130.564 92.5385H134.224L135.011 90.0001H131.351ZM125.037 110H128.697L133.666 94.3352H130.006L125.037 110Z" fill="#3D0491"/>
<path d="M122.544 92.2051L114.986 100.001L122.544 107.796V110H120.826L112.57 101.485V98.5151L120.826 90.0001H122.544V92.2051Z" fill="#3D0491"/>
<path d="M137.506 92.2051L145.064 100.001L137.506 107.796V110H139.224L147.48 101.485V98.5151L139.224 90.0001H137.506V92.2051Z" fill="#3D0491"/>
<path d="M131.351 150L130.564 152.538H134.224L135.011 150H131.351ZM125.037 170H128.697L133.666 154.335H130.006L125.037 170Z" fill="#3D0491"/>
<path d="M122.544 152.205L114.986 160.001L122.544 167.796V170H120.826L112.57 161.485V158.515L120.826 150H122.544V152.205Z" fill="#3D0491"/>
<path d="M137.506 152.205L145.064 160.001L137.506 167.796V170H139.224L147.48 161.485V158.515L139.224 150H137.506V152.205Z" fill="#3D0491"/>
<path d="M176.236 30L175.449 32.5384H179.109L179.896 30H176.236ZM169.922 50H173.582L178.551 34.3351H174.891L169.922 50Z" fill="#3D0491"/>
<path d="M167.427 32.2049L159.869 40.0006L167.427 47.7963V50H165.709L157.453 41.485V38.515L165.709 30H167.427V32.2049Z" fill="#3D0491"/>
<path d="M182.391 32.2049L189.949 40.0006L182.391 47.7963V50H184.109L192.365 41.485V38.515L184.109 30H182.391V32.2049Z" fill="#3D0491"/>
<path d="M176.236 30L175.449 32.5384H179.109L179.896 30H176.236ZM169.922 50H173.582L178.551 34.3351H174.891L169.922 50Z" fill="#3D0491"/>
<path d="M167.427 32.2049L159.869 40.0006L167.427 47.7963V50H165.709L157.453 41.485V38.515L165.709 30H167.427V32.2049Z" fill="#3D0491"/>
<path d="M182.391 32.2049L189.949 40.0006L182.391 47.7963V50H184.109L192.365 41.485V38.515L184.109 30H182.391V32.2049Z" fill="#3D0491"/>
<path d="M176.236 90.0001L175.449 92.5385H179.109L179.896 90.0001H176.236ZM169.922 110H173.582L178.551 94.3352H174.891L169.922 110Z" fill="#3D0491"/>
<path d="M167.427 92.2051L159.869 100.001L167.427 107.796V110H165.709L157.453 101.485V98.5151L165.709 90.0001H167.427V92.2051Z" fill="#3D0491"/>
<path d="M182.391 92.2051L189.949 100.001L182.391 107.796V110H184.109L192.365 101.485V98.5151L184.109 90.0001H182.391V92.2051Z" fill="#3D0491"/>
<path d="M176.236 150L175.449 152.538H179.109L179.896 150H176.236ZM169.922 170H173.582L178.551 154.335H174.891L169.922 170Z" fill="#3D0491"/>
<path d="M167.427 152.205L159.869 160.001L167.427 167.796V170H165.709L157.453 161.485V158.515L165.709 150H167.427V152.205Z" fill="#3D0491"/>
<path d="M182.391 152.205L189.949 160.001L182.391 167.796V170H184.109L192.365 161.485V158.515L184.109 150H182.391V152.205Z" fill="#3D0491"/>
<path d="M19.1439 0L18.3569 2.5384H22.0171L22.8041 0H19.1439ZM12.8301 20H16.4902L21.4593 4.33509H17.7992L12.8301 20Z" fill="#3D0491"/>
<path d="M10.3373 2.20494L2.77919 10.0006L10.3373 17.7963V20H8.61868L0.363281 11.485V8.51495L8.61868 0H10.3373V2.20494Z" fill="#3D0491"/>
<path d="M25.2988 2.20494L32.8569 10.0006L25.2988 17.7963V20H27.0174L35.2728 11.485V8.51495L27.0174 0H25.2988V2.20494Z" fill="#3D0491"/>
<path d="M19.1439 0L18.3569 2.5384H22.0171L22.8041 0H19.1439ZM12.8301 20H16.4902L21.4593 4.33509H17.7992L12.8301 20Z" fill="#3D0491"/>
<path d="M10.3373 2.20494L2.77919 10.0006L10.3373 17.7963V20H8.61868L0.363281 11.485V8.51495L8.61868 0H10.3373V2.20494Z" fill="#3D0491"/>
<path d="M25.2988 2.20494L32.8569 10.0006L25.2988 17.7963V20H27.0174L35.2728 11.485V8.51495L27.0174 0H25.2988V2.20494Z" fill="#3D0491"/>
<path d="M19.1439 60.0001L18.3569 62.5385H22.0171L22.8041 60.0001H19.1439ZM12.8301 80.0001H16.4902L21.4593 64.3352H17.7992L12.8301 80.0001Z" fill="#3D0491"/>
<path d="M10.3373 62.2051L2.77919 70.0008L10.3373 77.7965V80.0001H8.61868L0.363281 71.4852V68.5151L8.61868 60.0001H10.3373V62.2051Z" fill="#3D0491"/>
<path d="M25.2988 62.2051L32.8569 70.0008L25.2988 77.7965V80.0001H27.0174L35.2728 71.4852V68.5151L27.0174 60.0001H25.2988V62.2051Z" fill="#3D0491"/>
<path d="M19.1439 120L18.3569 122.538H22.0171L22.8041 120H19.1439ZM12.8301 140H16.4902L21.4593 124.335H17.7992L12.8301 140Z" fill="#3D0491"/>
<path d="M10.3373 122.205L2.77919 130.001L10.3373 137.796V140H8.61868L0.363281 131.485V128.515L8.61868 120H10.3373V122.205Z" fill="#3D0491"/>
<path d="M25.2988 122.205L32.8569 130.001L25.2988 137.796V140H27.0174L35.2728 131.485V128.515L27.0174 120H25.2988V122.205Z" fill="#3D0491"/>
<path d="M64.0267 0L63.2397 2.5384H66.8999L67.6869 0H64.0267ZM57.7129 20H61.3731L66.3422 4.33509H62.682L57.7129 20Z" fill="#3D0491"/>
<path d="M55.2201 2.20494L47.662 10.0006L55.2201 17.7963V20H53.5015L45.2461 11.485V8.51495L53.5015 0H55.2201V2.20494Z" fill="#3D0491"/>
<path d="M70.1816 2.20494L77.7397 10.0006L70.1816 17.7963V20H71.9002L80.1556 11.485V8.51495L71.9002 0H70.1816V2.20494Z" fill="#3D0491"/>
<path d="M64.0267 0L63.2397 2.5384H66.8999L67.6869 0H64.0267ZM57.7129 20H61.3731L66.3422 4.33509H62.682L57.7129 20Z" fill="#3D0491"/>
<path d="M55.2201 2.20494L47.662 10.0006L55.2201 17.7963V20H53.5015L45.2461 11.485V8.51495L53.5015 0H55.2201V2.20494Z" fill="#3D0491"/>
<path d="M70.1816 2.20494L77.7397 10.0006L70.1816 17.7963V20H71.9002L80.1556 11.485V8.51495L71.9002 0H70.1816V2.20494Z" fill="#3D0491"/>
<path d="M64.0267 60.0001L63.2397 62.5385H66.8999L67.6869 60.0001H64.0267ZM57.7129 80.0001H61.3731L66.3422 64.3352H62.682L57.7129 80.0001Z" fill="#3D0491"/>
<path d="M55.2201 62.2051L47.662 70.0008L55.2201 77.7965V80.0001H53.5015L45.2461 71.4852V68.5151L53.5015 60.0001H55.2201V62.2051Z" fill="#3D0491"/>
<path d="M70.1816 62.2051L77.7397 70.0008L70.1816 77.7965V80.0001H71.9002L80.1556 71.4852V68.5151L71.9002 60.0001H70.1816V62.2051Z" fill="#3D0491"/>
<path d="M64.0267 120L63.2397 122.538H66.8999L67.6869 120H64.0267ZM57.7129 140H61.3731L66.3422 124.335H62.682L57.7129 140Z" fill="#3D0491"/>
<path d="M55.2201 122.205L47.662 130.001L55.2201 137.796V140H53.5015L45.2461 131.485V128.515L53.5015 120H55.2201V122.205Z" fill="#3D0491"/>
<path d="M70.1816 122.205L77.7397 130.001L70.1816 137.796V140H71.9002L80.1556 131.485V128.515L71.9002 120H70.1816V122.205Z" fill="#3D0491"/>
<path d="M108.91 0L108.123 2.5384H111.783L112.57 0H108.91ZM102.596 20H106.256L111.225 4.33509H107.565L102.596 20Z" fill="#3D0491"/>
<path d="M100.103 2.20494L92.5448 10.0006L100.103 17.7963V20H98.3843L90.1289 11.485V8.51495L98.3843 0H100.103V2.20494Z" fill="#3D0491"/>
<path d="M115.062 2.20494L122.621 10.0006L115.062 17.7963V20H116.781L125.036 11.485V8.51495L116.781 0H115.062V2.20494Z" fill="#3D0491"/>
<path d="M108.91 0L108.123 2.5384H111.783L112.57 0H108.91ZM102.596 20H106.256L111.225 4.33509H107.565L102.596 20Z" fill="#3D0491"/>
<path d="M100.103 2.20494L92.5448 10.0006L100.103 17.7963V20H98.3843L90.1289 11.485V8.51495L98.3843 0H100.103V2.20494Z" fill="#3D0491"/>
<path d="M115.062 2.20494L122.621 10.0006L115.062 17.7963V20H116.781L125.036 11.485V8.51495L116.781 0H115.062V2.20494Z" fill="#3D0491"/>
<path d="M108.91 60.0001L108.123 62.5385H111.783L112.57 60.0001H108.91ZM102.596 80.0001H106.256L111.225 64.3352H107.565L102.596 80.0001Z" fill="#3D0491"/>
<path d="M100.103 62.2051L92.5448 70.0008L100.103 77.7965V80.0001H98.3843L90.1289 71.4852V68.5151L98.3843 60.0001H100.103V62.2051Z" fill="#3D0491"/>
<path d="M115.062 62.2051L122.621 70.0008L115.062 77.7965V80.0001H116.781L125.036 71.4852V68.5151L116.781 60.0001H115.062V62.2051Z" fill="#3D0491"/>
<path d="M108.91 120L108.123 122.538H111.783L112.57 120H108.91ZM102.596 140H106.256L111.225 124.335H107.565L102.596 140Z" fill="#3D0491"/>
<path d="M100.103 122.205L92.5448 130.001L100.103 137.796V140H98.3843L90.1289 131.485V128.515L98.3843 120H100.103V122.205Z" fill="#3D0491"/>
<path d="M115.062 122.205L122.621 130.001L115.062 137.796V140H116.781L125.036 131.485V128.515L116.781 120H115.062V122.205Z" fill="#3D0491"/>
<path d="M153.792 0L153.005 2.5384H156.666L157.452 0H153.792ZM147.479 20H151.139L156.108 4.33509H152.448L147.479 20Z" fill="#3D0491"/>
<path d="M144.988 2.20494L137.43 10.0006L144.988 17.7963V20H143.269L135.014 11.485V8.51495L143.269 0H144.988V2.20494Z" fill="#3D0491"/>
<path d="M159.947 2.20494L167.505 10.0006L159.947 17.7963V20H161.666L169.921 11.485V8.51495L161.666 0H159.947V2.20494Z" fill="#3D0491"/>
<path d="M153.792 0L153.005 2.5384H156.666L157.452 0H153.792ZM147.479 20H151.139L156.108 4.33509H152.448L147.479 20Z" fill="#3D0491"/>
<path d="M144.988 2.20494L137.43 10.0006L144.988 17.7963V20H143.269L135.014 11.485V8.51495L143.269 0H144.988V2.20494Z" fill="#3D0491"/>
<path d="M159.947 2.20494L167.505 10.0006L159.947 17.7963V20H161.666L169.921 11.485V8.51495L161.666 0H159.947V2.20494Z" fill="#3D0491"/>
<path d="M153.792 60.0001L153.005 62.5385H156.666L157.452 60.0001H153.792ZM147.479 80.0001H151.139L156.108 64.3352H152.448L147.479 80.0001Z" fill="#3D0491"/>
<path d="M144.988 62.2051L137.43 70.0008L144.988 77.7965V80.0001H143.269L135.014 71.4852V68.5151L143.269 60.0001H144.988V62.2051Z" fill="#3D0491"/>
<path d="M159.947 62.2051L167.505 70.0008L159.947 77.7965V80.0001H161.666L169.921 71.4852V68.5151L161.666 60.0001H159.947V62.2051Z" fill="#3D0491"/>
<path d="M153.792 120L153.005 122.538H156.666L157.452 120H153.792ZM147.479 140H151.139L156.108 124.335H152.448L147.479 140Z" fill="#3D0491"/>
<path d="M144.988 122.205L137.43 130.001L144.988 137.796V140H143.269L135.014 131.485V128.515L143.269 120H144.988V122.205Z" fill="#3D0491"/>
<path d="M159.947 122.205L167.505 130.001L159.947 137.796V140H161.666L169.921 131.485V128.515L161.666 120H159.947V122.205Z" fill="#3D0491"/>
</svg>
