<svg width="192" height="170" viewBox="0 0 192 170" fill="none" xmlns="http://www.w3.org/2000/svg">
<path d="M41.224 30L40.437 32.5384H44.0971L44.8841 30H41.224ZM34.9102 50H38.5703L43.5394 34.3351H39.8793L34.9102 50Z" fill="#EF4136"/>
<path d="M32.4154 32.2049L24.8573 40.0006L32.4154 47.7963V50H30.6968L22.4414 41.485V38.515L30.6968 30H32.4154V32.2049Z" fill="#EF4136"/>
<path d="M47.375 32.2049L54.9331 40.0006L47.375 47.7963V50H49.0936L57.349 41.485V38.515L49.0936 30H47.375V32.2049Z" fill="#EF4136"/>
<path d="M41.224 30L40.437 32.5384H44.0971L44.8841 30H41.224ZM34.9102 50H38.5703L43.5394 34.3351H39.8793L34.9102 50Z" fill="#EF4136"/>
<path d="M32.4154 32.2049L24.8573 40.0006L32.4154 47.7963V50H30.6968L22.4414 41.485V38.515L30.6968 30H32.4154V32.2049Z" fill="#EF4136"/>
<path d="M47.375 32.2049L54.9331 40.0006L47.375 47.7963V50H49.0936L57.349 41.485V38.515L49.0936 30H47.375V32.2049Z" fill="#EF4136"/>
<path d="M41.224 90.0001L40.437 92.5385H44.0971L44.8841 90.0001H41.224ZM34.9102 110H38.5703L43.5394 94.3352H39.8793L34.9102 110Z" fill="#EF4136"/>
<path d="M32.4154 92.2051L24.8573 100.001L32.4154 107.796V110H30.6968L22.4414 101.485V98.5151L30.6968 90.0001H32.4154V92.2051Z" fill="#EF4136"/>
<path d="M47.375 92.2051L54.9331 100.001L47.375 107.796V110H49.0936L57.349 101.485V98.5151L49.0936 90.0001H47.375V92.2051Z" fill="#EF4136"/>
<path d="M41.224 150L40.437 152.538H44.0971L44.8841 150H41.224ZM34.9102 170H38.5703L43.5394 154.335H39.8793L34.9102 170Z" fill="#EF4136"/>
<path d="M32.4154 152.205L24.8573 160.001L32.4154 167.796V170H30.6968L22.4414 161.485V158.515L30.6968 150H32.4154V152.205Z" fill="#EF4136"/>
<path d="M47.375 152.205L54.9331 160.001L47.375 167.796V170H49.0936L57.349 161.485V158.515L49.0936 150H47.375V152.205Z" fill="#EF4136"/>
<path d="M86.1068 30L85.3198 32.5384H88.98L89.767 30H86.1068ZM79.793 50H83.4531L88.4222 34.3351H84.7621L79.793 50Z" fill="#EF4136"/>
<path d="M77.2982 32.2049L69.7401 40.0006L77.2982 47.7963V50H75.5796L67.3242 41.485V38.515L75.5796 30H77.2982V32.2049Z" fill="#EF4136"/>
<path d="M92.2578 32.2049L99.8159 40.0006L92.2578 47.7963V50H93.9764L102.232 41.485V38.515L93.9764 30H92.2578V32.2049Z" fill="#EF4136"/>
<path d="M86.1068 30L85.3198 32.5384H88.98L89.767 30H86.1068ZM79.793 50H83.4531L88.4222 34.3351H84.7621L79.793 50Z" fill="#EF4136"/>
<path d="M77.2982 32.2049L69.7401 40.0006L77.2982 47.7963V50H75.5796L67.3242 41.485V38.515L75.5796 30H77.2982V32.2049Z" fill="#EF4136"/>
<path d="M92.2578 32.2049L99.8159 40.0006L92.2578 47.7963V50H93.9764L102.232 41.485V38.515L93.9764 30H92.2578V32.2049Z" fill="#EF4136"/>
<path d="M86.1068 90.0001L85.3198 92.5385H88.98L89.767 90.0001H86.1068ZM79.793 110H83.4531L88.4222 94.3352H84.7621L79.793 110Z" fill="#EF4136"/>
<path d="M77.2982 92.2051L69.7401 100.001L77.2982 107.796V110H75.5796L67.3242 101.485V98.5151L75.5796 90.0001H77.2982V92.2051Z" fill="#EF4136"/>
<path d="M92.2578 92.2051L99.8159 100.001L92.2578 107.796V110H93.9764L102.232 101.485V98.5151L93.9764 90.0001H92.2578V92.2051Z" fill="#EF4136"/>
<path d="M86.1068 150L85.3198 152.538H88.98L89.767 150H86.1068ZM79.793 170H83.4531L88.4222 154.335H84.7621L79.793 170Z" fill="#EF4136"/>
<path d="M77.2982 152.205L69.7401 160.001L77.2982 167.796V170H75.5796L67.3242 161.485V158.515L75.5796 150H77.2982V152.205Z" fill="#EF4136"/>
<path d="M92.2578 152.205L99.8159 160.001L92.2578 167.796V170H93.9764L102.232 161.485V158.515L93.9764 150H92.2578V152.205Z" fill="#EF4136"/>
<path d="M130.99 30L130.203 32.5384H133.863L134.65 30H130.99ZM124.676 50H128.336L133.305 34.3351H129.645L124.676 50Z" fill="#EF4136"/>
<path d="M122.181 32.2049L114.623 40.0006L122.181 47.7963V50H120.462L112.207 41.485V38.515L120.462 30H122.181V32.2049Z" fill="#EF4136"/>
<path d="M137.145 32.2049L144.703 40.0006L137.145 47.7963V50H138.863L147.119 41.485V38.515L138.863 30H137.145V32.2049Z" fill="#EF4136"/>
<path d="M130.99 30L130.203 32.5384H133.863L134.65 30H130.99ZM124.676 50H128.336L133.305 34.3351H129.645L124.676 50Z" fill="#EF4136"/>
<path d="M122.181 32.2049L114.623 40.0006L122.181 47.7963V50H120.462L112.207 41.485V38.515L120.462 30H122.181V32.2049Z" fill="#EF4136"/>
<path d="M137.145 32.2049L144.703 40.0006L137.145 47.7963V50H138.863L147.119 41.485V38.515L138.863 30H137.145V32.2049Z" fill="#EF4136"/>
<path d="M130.99 90.0001L130.203 92.5385H133.863L134.65 90.0001H130.99ZM124.676 110H128.336L133.305 94.3352H129.645L124.676 110Z" fill="#EF4136"/>
<path d="M122.181 92.2051L114.623 100.001L122.181 107.796V110H120.462L112.207 101.485V98.5151L120.462 90.0001H122.181V92.2051Z" fill="#EF4136"/>
<path d="M137.145 92.2051L144.703 100.001L137.145 107.796V110H138.863L147.119 101.485V98.5151L138.863 90.0001H137.145V92.2051Z" fill="#EF4136"/>
<path d="M130.99 150L130.203 152.538H133.863L134.65 150H130.99ZM124.676 170H128.336L133.305 154.335H129.645L124.676 170Z" fill="#EF4136"/>
<path d="M122.181 152.205L114.623 160.001L122.181 167.796V170H120.462L112.207 161.485V158.515L120.462 150H122.181V152.205Z" fill="#EF4136"/>
<path d="M137.145 152.205L144.703 160.001L137.145 167.796V170H138.863L147.119 161.485V158.515L138.863 150H137.145V152.205Z" fill="#EF4136"/>
<path d="M175.872 30L175.085 32.5384H178.746L179.533 30H175.872ZM169.559 50H173.219L178.188 34.3351H174.528L169.559 50Z" fill="#EF4136"/>
<path d="M167.064 32.2049L159.506 40.0006L167.064 47.7963V50H165.345L157.09 41.485V38.515L165.345 30H167.064V32.2049Z" fill="#EF4136"/>
<path d="M182.027 32.2049L189.585 40.0006L182.027 47.7963V50H183.746L192.001 41.485V38.515L183.746 30H182.027V32.2049Z" fill="#EF4136"/>
<path d="M175.872 30L175.085 32.5384H178.746L179.533 30H175.872ZM169.559 50H173.219L178.188 34.3351H174.528L169.559 50Z" fill="#EF4136"/>
<path d="M167.064 32.2049L159.506 40.0006L167.064 47.7963V50H165.345L157.09 41.485V38.515L165.345 30H167.064V32.2049Z" fill="#EF4136"/>
<path d="M182.027 32.2049L189.585 40.0006L182.027 47.7963V50H183.746L192.001 41.485V38.515L183.746 30H182.027V32.2049Z" fill="#EF4136"/>
<path d="M175.872 90.0001L175.085 92.5385H178.746L179.533 90.0001H175.872ZM169.559 110H173.219L178.188 94.3352H174.528L169.559 110Z" fill="#EF4136"/>
<path d="M167.064 92.2051L159.506 100.001L167.064 107.796V110H165.345L157.09 101.485V98.5151L165.345 90.0001H167.064V92.2051Z" fill="#EF4136"/>
<path d="M182.027 92.2051L189.585 100.001L182.027 107.796V110H183.746L192.001 101.485V98.5151L183.746 90.0001H182.027V92.2051Z" fill="#EF4136"/>
<path d="M175.872 150L175.085 152.538H178.746L179.533 150H175.872ZM169.559 170H173.219L178.188 154.335H174.528L169.559 170Z" fill="#EF4136"/>
<path d="M167.064 152.205L159.506 160.001L167.064 167.796V170H165.345L157.09 161.485V158.515L165.345 150H167.064V152.205Z" fill="#EF4136"/>
<path d="M182.027 152.205L189.585 160.001L182.027 167.796V170H183.746L192.001 161.485V158.515L183.746 150H182.027V152.205Z" fill="#EF4136"/>
<path d="M18.7806 0L17.9936 2.5384H21.6538L22.4408 0H18.7806ZM12.4668 20H16.127L21.0961 4.33509H17.4359L12.4668 20Z" fill="#EF4136"/>
<path d="M9.97398 2.20494L2.41591 10.0006L9.97398 17.7963V20H8.2554L0 11.485V8.51495L8.2554 0H9.97398V2.20494Z" fill="#EF4136"/>
<path d="M24.9355 2.20494L32.4936 10.0006L24.9355 17.7963V20H26.6541L34.9095 11.485V8.51495L26.6541 0H24.9355V2.20494Z" fill="#EF4136"/>
<path d="M18.7806 0L17.9936 2.5384H21.6538L22.4408 0H18.7806ZM12.4668 20H16.127L21.0961 4.33509H17.4359L12.4668 20Z" fill="#EF4136"/>
<path d="M9.97398 2.20494L2.41591 10.0006L9.97398 17.7963V20H8.2554L0 11.485V8.51495L8.2554 0H9.97398V2.20494Z" fill="#EF4136"/>
<path d="M24.9355 2.20494L32.4936 10.0006L24.9355 17.7963V20H26.6541L34.9095 11.485V8.51495L26.6541 0H24.9355V2.20494Z" fill="#EF4136"/>
<path d="M18.7806 60.0001L17.9936 62.5385H21.6538L22.4408 60.0001H18.7806ZM12.4668 80.0001H16.127L21.0961 64.3352H17.4359L12.4668 80.0001Z" fill="#EF4136"/>
<path d="M9.97398 62.2051L2.41591 70.0008L9.97398 77.7965V80.0001H8.2554L0 71.4852V68.5151L8.2554 60.0001H9.97398V62.2051Z" fill="#EF4136"/>
<path d="M24.9355 62.2051L32.4936 70.0008L24.9355 77.7965V80.0001H26.6541L34.9095 71.4852V68.5151L26.6541 60.0001H24.9355V62.2051Z" fill="#EF4136"/>
<path d="M18.7806 120L17.9936 122.538H21.6538L22.4408 120H18.7806ZM12.4668 140H16.127L21.0961 124.335H17.4359L12.4668 140Z" fill="#EF4136"/>
<path d="M9.97398 122.205L2.41591 130.001L9.97398 137.796V140H8.2554L0 131.485V128.515L8.2554 120H9.97398V122.205Z" fill="#EF4136"/>
<path d="M24.9355 122.205L32.4936 130.001L24.9355 137.796V140H26.6541L34.9095 131.485V128.515L26.6541 120H24.9355V122.205Z" fill="#EF4136"/>
<path d="M63.6654 0L62.8784 2.5384H66.5386L67.3255 0H63.6654ZM57.3516 20H61.0117L65.9808 4.33509H62.3207L57.3516 20Z" fill="#EF4136"/>
<path d="M54.8568 2.20494L47.2987 10.0006L54.8568 17.7963V20H53.1382L44.8828 11.485V8.51495L53.1382 0H54.8568V2.20494Z" fill="#EF4136"/>
<path d="M69.8203 2.20494L77.3784 10.0006L69.8203 17.7963V20H71.5389L79.7943 11.485V8.51495L71.5389 0H69.8203V2.20494Z" fill="#EF4136"/>
<path d="M63.6654 0L62.8784 2.5384H66.5386L67.3255 0H63.6654ZM57.3516 20H61.0117L65.9808 4.33509H62.3207L57.3516 20Z" fill="#EF4136"/>
<path d="M54.8568 2.20494L47.2987 10.0006L54.8568 17.7963V20H53.1382L44.8828 11.485V8.51495L53.1382 0H54.8568V2.20494Z" fill="#EF4136"/>
<path d="M69.8203 2.20494L77.3784 10.0006L69.8203 17.7963V20H71.5389L79.7943 11.485V8.51495L71.5389 0H69.8203V2.20494Z" fill="#EF4136"/>
<path d="M63.6654 60.0001L62.8784 62.5385H66.5386L67.3255 60.0001H63.6654ZM57.3516 80.0001H61.0117L65.9808 64.3352H62.3207L57.3516 80.0001Z" fill="#EF4136"/>
<path d="M54.8568 62.2051L47.2987 70.0008L54.8568 77.7965V80.0001H53.1382L44.8828 71.4852V68.5151L53.1382 60.0001H54.8568V62.2051Z" fill="#EF4136"/>
<path d="M69.8203 62.2051L77.3784 70.0008L69.8203 77.7965V80.0001H71.5389L79.7943 71.4852V68.5151L71.5389 60.0001H69.8203V62.2051Z" fill="#EF4136"/>
<path d="M63.6654 120L62.8784 122.538H66.5386L67.3255 120H63.6654ZM57.3516 140H61.0117L65.9808 124.335H62.3207L57.3516 140Z" fill="#EF4136"/>
<path d="M54.8568 122.205L47.2987 130.001L54.8568 137.796V140H53.1382L44.8828 131.485V128.515L53.1382 120H54.8568V122.205Z" fill="#EF4136"/>
<path d="M69.8203 122.205L77.3784 130.001L69.8203 137.796V140H71.5389L79.7943 131.485V128.515L71.5389 120H69.8203V122.205Z" fill="#EF4136"/>
<path d="M108.548 0L107.761 2.5384H111.421L112.208 0H108.548ZM102.234 20H105.895L110.864 4.33509H107.203L102.234 20Z" fill="#EF4136"/>
<path d="M99.7396 2.20494L92.1815 10.0006L99.7396 17.7963V20H98.021L89.7656 11.485V8.51495L98.021 0H99.7396V2.20494Z" fill="#EF4136"/>
<path d="M114.699 2.20494L122.257 10.0006L114.699 17.7963V20H116.418L124.673 11.485V8.51495L116.418 0H114.699V2.20494Z" fill="#EF4136"/>
<path d="M108.548 0L107.761 2.5384H111.421L112.208 0H108.548ZM102.234 20H105.895L110.864 4.33509H107.203L102.234 20Z" fill="#EF4136"/>
<path d="M99.7396 2.20494L92.1815 10.0006L99.7396 17.7963V20H98.021L89.7656 11.485V8.51495L98.021 0H99.7396V2.20494Z" fill="#EF4136"/>
<path d="M114.699 2.20494L122.257 10.0006L114.699 17.7963V20H116.418L124.673 11.485V8.51495L116.418 0H114.699V2.20494Z" fill="#EF4136"/>
<path d="M108.548 60.0001L107.761 62.5385H111.421L112.208 60.0001H108.548ZM102.234 80.0001H105.895L110.864 64.3352H107.203L102.234 80.0001Z" fill="#EF4136"/>
<path d="M99.7396 62.2051L92.1815 70.0008L99.7396 77.7965V80.0001H98.021L89.7656 71.4852V68.5151L98.021 60.0001H99.7396V62.2051Z" fill="#EF4136"/>
<path d="M114.699 62.2051L122.257 70.0008L114.699 77.7965V80.0001H116.418L124.673 71.4852V68.5151L116.418 60.0001H114.699V62.2051Z" fill="#EF4136"/>
<path d="M108.548 120L107.761 122.538H111.421L112.208 120H108.548ZM102.234 140H105.895L110.864 124.335H107.203L102.234 140Z" fill="#EF4136"/>
<path d="M99.7396 122.205L92.1815 130.001L99.7396 137.796V140H98.021L89.7656 131.485V128.515L98.021 120H99.7396V122.205Z" fill="#EF4136"/>
<path d="M114.699 122.205L122.257 130.001L114.699 137.796V140H116.418L124.673 131.485V128.515L116.418 120H114.699V122.205Z" fill="#EF4136"/>
<path d="M153.431 0L152.644 2.5384H156.304L157.091 0H153.431ZM147.117 20H150.777L155.746 4.33509H152.086L147.117 20Z" fill="#EF4136"/>
<path d="M144.622 2.20494L137.064 10.0006L144.622 17.7963V20H142.904L134.648 11.485V8.51495L142.904 0H144.622V2.20494Z" fill="#EF4136"/>
<path d="M159.586 2.20494L167.144 10.0006L159.586 17.7963V20H161.305L169.56 11.485V8.51495L161.305 0H159.586V2.20494Z" fill="#EF4136"/>
<path d="M153.431 0L152.644 2.5384H156.304L157.091 0H153.431ZM147.117 20H150.777L155.746 4.33509H152.086L147.117 20Z" fill="#EF4136"/>
<path d="M144.622 2.20494L137.064 10.0006L144.622 17.7963V20H142.904L134.648 11.485V8.51495L142.904 0H144.622V2.20494Z" fill="#EF4136"/>
<path d="M159.586 2.20494L167.144 10.0006L159.586 17.7963V20H161.305L169.56 11.485V8.51495L161.305 0H159.586V2.20494Z" fill="#EF4136"/>
<path d="M153.431 60.0001L152.644 62.5385H156.304L157.091 60.0001H153.431ZM147.117 80.0001H150.777L155.746 64.3352H152.086L147.117 80.0001Z" fill="#EF4136"/>
<path d="M144.622 62.2051L137.064 70.0008L144.622 77.7965V80.0001H142.904L134.648 71.4852V68.5151L142.904 60.0001H144.622V62.2051Z" fill="#EF4136"/>
<path d="M159.586 62.2051L167.144 70.0008L159.586 77.7965V80.0001H161.305L169.56 71.4852V68.5151L161.305 60.0001H159.586V62.2051Z" fill="#EF4136"/>
<path d="M153.431 120L152.644 122.538H156.304L157.091 120H153.431ZM147.117 140H150.777L155.746 124.335H152.086L147.117 140Z" fill="#EF4136"/>
<path d="M144.622 122.205L137.064 130.001L144.622 137.796V140H142.904L134.648 131.485V128.515L142.904 120H144.622V122.205Z" fill="#EF4136"/>
<path d="M159.586 122.205L167.144 130.001L159.586 137.796V140H161.305L169.56 131.485V128.515L161.305 120H159.586V122.205Z" fill="#EF4136"/>
</svg>
